<svg xmlns="http://www.w3.org/2000/svg" xmlns:xlink="http://www.w3.org/1999/xlink" width="500" zoomAndPan="magnify" viewBox="0 0 375 374.999991" height="500" preserveAspectRatio="xMidYMid meet" version="1.0"><defs><clipPath id="60f50ed17b"><path d="M 191 92 L 309 92 L 309 234 L 191 234 Z M 191 92 " clip-rule="nonzero"/></clipPath><clipPath id="13e5258ea1"><path d="M 187.5 88.125 L 306 88.125 L 306 230 L 187.5 230 Z M 187.5 88.125 " clip-rule="nonzero"/></clipPath><clipPath id="a21bd2e57d"><path d="M 22 107 L 208 107 L 208 233.710938 L 22 233.710938 Z M 22 107 " clip-rule="nonzero"/></clipPath><clipPath id="eb68f1ecd9"><path d="M 21 106.960938 L 208 106.960938 L 208 233.710938 L 21 233.710938 Z M 21 106.960938 " clip-rule="nonzero"/></clipPath></defs><rect x="-37.5" width="450" fill="#ffffff" y="-37.499999" height="449.999989" fill-opacity="1"/><rect x="-37.5" width="450" fill="#915dd6" y="-37.499999" height="449.999989" fill-opacity="1"/><g clip-path="url(#60f50ed17b)"><path fill="#280594" d="M 308.578125 168.414062 C 308.035156 165.890625 307.003906 163.597656 305.355469 161.59375 C 303.433594 159.25 300.992188 157.636719 298.195312 156.523438 C 295.113281 155.296875 291.886719 154.746094 288.589844 154.589844 C 284.542969 154.402344 280.539062 154.765625 276.5625 155.511719 L 274.476562 155.902344 C 274.679688 155.726562 274.777344 155.632812 274.890625 155.542969 C 276.476562 154.273438 278.085938 153.027344 279.640625 151.722656 C 284.34375 147.789062 288.753906 143.558594 292.683594 138.84375 C 295.269531 135.742188 297.59375 132.460938 299.464844 128.871094 C 301.507812 124.941406 302.953125 120.824219 303.292969 116.371094 C 303.507812 113.574219 303.292969 110.8125 302.40625 108.144531 C 300.007812 100.882812 295.148438 96.054688 287.886719 93.6875 C 283.710938 92.332031 279.410156 92.140625 275.070312 92.523438 C 271.679688 92.824219 268.363281 93.519531 265.109375 94.503906 C 259.898438 96.078125 254.976562 98.328125 250.21875 100.945312 C 243.570312 104.609375 237.371094 108.925781 231.5625 113.804688 C 228.726562 116.1875 225.984375 118.675781 223.480469 121.417969 C 223.054688 121.878906 222.652344 122.359375 222.167969 122.914062 C 222.148438 122.621094 222.125 122.414062 222.121094 122.210938 C 221.972656 117.746094 221.828125 113.285156 221.683594 108.824219 C 221.597656 106.15625 221.523438 103.488281 221.441406 100.824219 C 221.441406 100.621094 221.425781 100.421875 221.398438 100.222656 C 221.292969 99.640625 220.769531 99.101562 220.222656 98.996094 C 219.585938 98.871094 219.136719 99.140625 218.792969 99.65625 C 218.21875 100.527344 217.492188 101.269531 216.730469 101.964844 C 215.207031 103.347656 213.5625 104.570312 211.867188 105.726562 C 207.011719 109.03125 201.816406 111.648438 196.210938 113.421875 C 195.398438 113.675781 194.578125 113.9375 193.710938 113.9375 C 193.1875 113.929688 192.71875 114.089844 192.3125 114.425781 C 191.574219 115.023438 191.5 115.660156 192.132812 116.367188 C 193.128906 117.488281 194.144531 118.609375 195.128906 119.75 C 197.378906 122.367188 199.515625 125.074219 201.441406 127.941406 C 206.734375 135.816406 210.929688 144.222656 213.699219 153.3125 C 213.8125 153.699219 213.96875 154.066406 214.167969 154.414062 C 214.734375 155.34375 216.078125 155.34375 216.671875 154.441406 C 216.972656 153.964844 217.296875 153.507812 217.648438 153.066406 C 218.660156 151.855469 219.667969 150.636719 220.730469 149.46875 C 226.425781 143.257812 232.800781 137.835938 239.71875 133.042969 C 242.894531 130.839844 246.199219 128.847656 249.769531 127.316406 C 251.925781 126.394531 254.136719 125.65625 256.492188 125.429688 C 257.492188 125.332031 258.492188 125.363281 259.453125 125.679688 C 260.554688 126.039062 261.230469 126.765625 261.445312 127.910156 C 261.605469 128.78125 261.53125 129.644531 261.351562 130.507812 C 261.03125 132.046875 260.4375 133.484375 259.71875 134.875 C 258.15625 137.890625 256.121094 140.582031 253.871094 143.109375 C 250.414062 146.980469 246.527344 150.386719 242.332031 153.4375 C 237.8125 156.726562 233.054688 159.585938 227.792969 161.539062 C 227.46875 161.667969 227.171875 161.832031 226.894531 162.039062 C 226.710938 162.171875 226.582031 162.382812 226.4375 162.566406 C 226.308594 162.734375 226.203125 162.921875 226.058594 163.074219 C 225.660156 163.507812 225.601562 164.089844 225.945312 164.570312 C 226.074219 164.746094 226.226562 164.902344 226.355469 165.078125 C 228.144531 167.476562 229.894531 169.90625 231.476562 172.453125 C 233.238281 175.28125 235.152344 178.027344 236.285156 181.207031 C 236.488281 181.773438 236.886719 182.203125 237.558594 182.253906 C 237.628906 182.269531 237.695312 182.292969 237.757812 182.324219 C 238.515625 182.640625 238.855469 182.582031 239.398438 181.992188 C 240.058594 181.285156 240.792969 180.667969 241.601562 180.140625 C 244.160156 178.429688 246.886719 177.042969 249.734375 175.890625 C 255.449219 173.570312 261.335938 171.964844 267.523438 171.628906 C 269.417969 171.511719 271.296875 171.636719 273.15625 172.007812 C 274.535156 172.292969 275.851562 172.746094 276.980469 173.625 C 277.828125 174.285156 278.378906 175.125 278.554688 176.207031 C 278.660156 176.953125 278.625 177.691406 278.453125 178.421875 C 278.109375 180.003906 277.394531 181.425781 276.546875 182.789062 C 275.1875 184.972656 273.519531 186.910156 271.714844 188.734375 C 267.171875 193.320312 262.050781 197.183594 256.644531 200.6875 C 256.535156 200.738281 256.425781 200.78125 256.3125 200.816406 C 256.3125 200.273438 256.328125 199.785156 256.3125 199.296875 C 256.28125 198.539062 256.277344 197.769531 256.175781 197.019531 C 256.023438 195.878906 255.324219 195.152344 254.324219 195.019531 C 254.015625 194.984375 253.710938 194.992188 253.40625 195.046875 C 252.15625 195.269531 250.917969 195.558594 249.664062 195.746094 C 247.382812 196.078125 245.101562 196.378906 242.8125 196.644531 C 239.925781 196.988281 237.027344 197.160156 234.121094 197.253906 C 230.199219 197.382812 226.28125 197.273438 222.371094 196.929688 C 221.484375 196.867188 220.609375 196.710938 219.75 196.464844 C 219.476562 196.382812 219.152344 196.449219 218.851562 196.472656 C 218.695312 196.488281 218.542969 196.574219 218.382812 196.601562 C 218.019531 196.664062 217.746094 196.859375 217.5625 197.179688 C 217.414062 197.429688 217.292969 197.691406 217.195312 197.964844 C 216.878906 198.851562 216.585938 199.75 216.265625 200.636719 C 213.84375 207.335938 211.214844 213.953125 208.382812 220.492188 C 206.898438 223.902344 205.316406 227.261719 203.632812 230.578125 C 203.351562 231.125 203.066406 231.660156 202.890625 232.257812 C 202.640625 233.113281 203.132812 233.90625 204.023438 233.972656 C 204.257812 233.992188 204.496094 233.96875 204.730469 233.960938 C 205.367188 233.949219 206 233.933594 206.636719 233.929688 C 209.140625 233.917969 211.644531 233.949219 214.148438 233.886719 C 217.417969 233.804688 220.667969 233.476562 223.910156 233.078125 C 227.261719 232.667969 230.589844 232.128906 233.902344 231.488281 C 238.691406 230.566406 243.421875 229.398438 248.09375 227.992188 C 257.863281 225.035156 267.21875 221.117188 276.007812 215.902344 C 281.816406 212.453125 287.246094 208.496094 292.160156 203.847656 C 296.585938 199.660156 300.492188 195.046875 303.628906 189.808594 C 306 185.84375 307.84375 181.664062 308.644531 177.078125 C 309.144531 174.183594 309.203125 171.296875 308.578125 168.414062 Z M 308.578125 168.414062 " fill-opacity="1" fill-rule="nonzero"/></g><g clip-path="url(#13e5258ea1)"><path fill="#280594" d="M 304.585938 164.417969 C 304.039062 161.898438 303.007812 159.601562 301.363281 157.597656 C 299.4375 155.253906 296.996094 153.640625 294.203125 152.527344 C 291.117188 151.300781 287.890625 150.75 284.59375 150.597656 C 280.550781 150.40625 276.542969 150.769531 272.566406 151.515625 L 270.484375 151.90625 C 270.683594 151.730469 270.78125 151.636719 270.894531 151.546875 C 272.480469 150.277344 274.089844 149.03125 275.644531 147.726562 C 280.347656 143.792969 284.757812 139.5625 288.6875 134.847656 C 291.273438 131.746094 293.601562 128.464844 295.46875 124.875 C 297.511719 120.945312 298.957031 116.828125 299.300781 112.375 C 299.511719 109.578125 299.300781 106.816406 298.410156 104.148438 C 296.011719 96.886719 291.152344 92.0625 283.890625 89.691406 C 279.71875 88.335938 275.414062 88.144531 271.074219 88.53125 C 267.683594 88.828125 264.371094 89.523438 261.113281 90.507812 C 255.902344 92.082031 250.984375 94.332031 246.226562 96.953125 C 239.574219 100.613281 233.375 104.929688 227.566406 109.808594 C 224.730469 112.191406 221.988281 114.679688 219.484375 117.421875 C 219.058594 117.886719 218.65625 118.367188 218.171875 118.917969 C 218.152344 118.628906 218.132812 118.417969 218.125 118.214844 C 217.976562 113.75 217.832031 109.289062 217.6875 104.828125 C 217.601562 102.160156 217.527344 99.492188 217.445312 96.828125 C 217.445312 96.625 217.429688 96.425781 217.402344 96.226562 C 217.296875 95.648438 216.777344 95.101562 216.226562 94.996094 C 215.59375 94.875 215.140625 95.140625 214.796875 95.660156 C 214.222656 96.527344 213.5 97.269531 212.734375 97.96875 C 211.210938 99.351562 209.566406 100.574219 207.871094 101.726562 C 203.015625 105.035156 197.820312 107.652344 192.214844 109.425781 C 191.402344 109.683594 190.582031 109.941406 189.714844 109.945312 C 189.191406 109.933594 188.722656 110.09375 188.316406 110.429688 C 187.578125 111.027344 187.503906 111.664062 188.136719 112.371094 C 189.140625 113.492188 190.148438 114.613281 191.132812 115.753906 C 193.382812 118.371094 195.519531 121.078125 197.445312 123.945312 C 202.738281 131.820312 206.933594 140.226562 209.707031 149.316406 C 209.816406 149.703125 209.972656 150.070312 210.171875 150.417969 C 210.738281 151.347656 212.082031 151.347656 212.675781 150.445312 C 212.976562 149.96875 213.300781 149.511719 213.652344 149.070312 C 214.664062 147.859375 215.671875 146.640625 216.738281 145.472656 C 222.429688 139.261719 228.804688 133.839844 235.722656 129.046875 C 238.902344 126.84375 242.207031 124.851562 245.773438 123.320312 C 247.929688 122.398438 250.144531 121.660156 252.496094 121.433594 C 253.496094 121.335938 254.496094 121.371094 255.457031 121.683594 C 256.558594 122.042969 257.234375 122.769531 257.449219 123.914062 C 257.609375 124.785156 257.535156 125.648438 257.355469 126.511719 C 257.039062 128.050781 256.441406 129.488281 255.722656 130.878906 C 254.160156 133.898438 252.125 136.585938 249.878906 139.113281 C 246.417969 142.984375 242.53125 146.390625 238.335938 149.441406 C 233.816406 152.730469 229.058594 155.589844 223.796875 157.542969 C 223.472656 157.671875 223.175781 157.839844 222.898438 158.042969 C 222.714844 158.175781 222.585938 158.386719 222.445312 158.570312 C 222.3125 158.738281 222.207031 158.925781 222.0625 159.078125 C 221.664062 159.511719 221.605469 160.09375 221.949219 160.574219 C 222.078125 160.75 222.230469 160.90625 222.359375 161.082031 C 224.148438 163.480469 225.898438 165.914062 227.480469 168.457031 C 229.242188 171.285156 231.15625 174.03125 232.289062 177.210938 C 232.492188 177.777344 232.890625 178.210938 233.5625 178.261719 C 233.632812 178.273438 233.699219 178.296875 233.761719 178.328125 C 234.519531 178.644531 234.859375 178.585938 235.402344 177.996094 C 236.0625 177.289062 236.796875 176.671875 237.605469 176.144531 C 240.164062 174.433594 242.890625 173.046875 245.738281 171.894531 C 251.457031 169.574219 257.339844 167.96875 263.527344 167.632812 C 265.421875 167.515625 267.300781 167.640625 269.160156 168.011719 C 270.539062 168.296875 271.855469 168.75 272.984375 169.628906 C 273.832031 170.289062 274.382812 171.128906 274.558594 172.210938 C 274.664062 172.957031 274.632812 173.695312 274.457031 174.425781 C 274.113281 176.007812 273.398438 177.429688 272.550781 178.792969 C 271.195312 180.976562 269.523438 182.914062 267.722656 184.738281 C 263.179688 189.324219 258.058594 193.1875 252.652344 196.691406 C 252.546875 196.742188 252.4375 196.789062 252.324219 196.820312 C 252.324219 196.277344 252.339844 195.789062 252.324219 195.300781 C 252.292969 194.542969 252.289062 193.773438 252.183594 193.023438 C 252.03125 191.882812 251.332031 191.15625 250.335938 191.023438 C 250.027344 190.988281 249.722656 190.996094 249.414062 191.050781 C 248.164062 191.273438 246.925781 191.5625 245.671875 191.75 C 243.394531 192.082031 241.109375 192.382812 238.820312 192.648438 C 235.9375 192.992188 233.035156 193.164062 230.128906 193.257812 C 226.207031 193.386719 222.289062 193.277344 218.375 192.933594 C 217.488281 192.871094 216.613281 192.714844 215.753906 192.472656 C 215.480469 192.386719 215.15625 192.453125 214.855469 192.480469 C 214.699219 192.492188 214.546875 192.578125 214.386719 192.605469 C 214.023438 192.671875 213.75 192.863281 213.566406 193.183594 C 213.421875 193.433594 213.296875 193.695312 213.203125 193.96875 C 212.882812 194.855469 212.589844 195.753906 212.269531 196.640625 C 209.847656 203.339844 207.21875 209.957031 204.386719 216.496094 C 202.902344 219.90625 201.320312 223.265625 199.636719 226.582031 C 199.355469 227.128906 199.074219 227.664062 198.894531 228.261719 C 198.644531 229.117188 199.136719 229.910156 200.027344 229.976562 C 200.261719 229.996094 200.5 229.972656 200.734375 229.964844 C 201.371094 229.953125 202.003906 229.9375 202.640625 229.933594 C 205.144531 229.921875 207.648438 229.953125 210.152344 229.890625 C 213.421875 229.8125 216.671875 229.480469 219.917969 229.082031 C 223.265625 228.675781 226.59375 228.132812 229.90625 227.492188 C 234.695312 226.570312 239.429688 225.402344 244.097656 223.996094 C 253.867188 221.039062 263.222656 217.125 272.011719 211.90625 C 277.820312 208.457031 283.25 204.5 288.164062 199.851562 C 292.589844 195.667969 296.496094 191.050781 299.632812 185.8125 C 302.007812 181.847656 303.851562 177.667969 304.648438 173.082031 C 305.148438 170.1875 305.207031 167.300781 304.585938 164.417969 Z M 301.585938 174.945312 C 300.714844 178.230469 299.300781 181.28125 297.578125 184.195312 C 294.363281 189.632812 290.296875 194.367188 285.667969 198.636719 C 280.355469 203.53125 274.464844 207.621094 268.164062 211.132812 C 259.972656 215.699219 251.332031 219.171875 242.351562 221.820312 C 238.105469 223.070312 233.804688 224.105469 229.464844 224.953125 C 225.832031 225.660156 222.175781 226.234375 218.496094 226.652344 C 214.019531 227.152344 209.535156 227.472656 205.023438 227.40625 C 204.023438 227.394531 203.035156 227.40625 201.960938 227.40625 C 201.992188 227.316406 202.027344 227.226562 202.066406 227.140625 C 203.5 224.816406 204.613281 222.335938 205.722656 219.847656 C 208.894531 212.765625 211.765625 205.5625 214.421875 198.273438 C 214.789062 197.265625 215.132812 196.253906 215.488281 195.246094 C 215.609375 194.890625 215.613281 194.894531 215.980469 194.988281 C 217.460938 195.367188 218.964844 195.597656 220.488281 195.6875 C 222.972656 195.859375 225.457031 195.921875 227.945312 195.890625 C 231.160156 195.851562 234.371094 195.703125 237.566406 195.371094 C 240.054688 195.109375 242.542969 194.816406 245.023438 194.46875 C 246.492188 194.269531 247.945312 193.9375 249.40625 193.664062 C 249.476562 193.652344 249.546875 193.644531 249.667969 193.628906 C 249.683594 193.878906 249.707031 194.109375 249.710938 194.335938 C 249.738281 195.480469 249.761719 196.625 249.78125 197.769531 C 249.785156 198.238281 249.664062 198.617188 249.179688 198.867188 C 248.050781 199.445312 246.949219 200.074219 245.835938 200.683594 C 245.660156 200.773438 245.488281 200.871094 245.320312 200.984375 C 244.75 201.394531 244.570312 202.082031 244.882812 202.660156 C 245.191406 203.242188 245.859375 203.484375 246.519531 203.230469 C 246.894531 203.09375 247.257812 202.933594 247.613281 202.75 C 248.511719 202.269531 249.410156 201.800781 250.273438 201.273438 C 251.496094 200.527344 252.691406 199.734375 253.894531 198.960938 C 258.742188 195.839844 263.351562 192.410156 267.578125 188.476562 C 270.003906 186.21875 272.273438 183.824219 274.144531 181.078125 C 275.316406 179.363281 276.300781 177.554688 276.851562 175.53125 C 277.230469 174.148438 277.363281 172.746094 277.027344 171.335938 C 276.640625 169.714844 275.730469 168.441406 274.398438 167.457031 C 273 166.425781 271.402344 165.859375 269.722656 165.492188 C 267.175781 164.949219 264.605469 164.910156 262.03125 165.144531 C 253.957031 165.890625 246.394531 168.324219 239.253906 172.128906 C 237.519531 173.050781 235.878906 174.117188 234.441406 175.582031 C 233.277344 172.65625 231.566406 170.097656 229.929688 167.488281 C 228.296875 164.882812 226.636719 162.335938 224.539062 160.035156 C 225.511719 159.636719 226.417969 159.273438 227.3125 158.890625 C 230.84375 157.378906 234.140625 155.449219 237.320312 153.304688 C 242.3125 149.929688 246.929688 146.097656 251.035156 141.671875 C 253.597656 138.910156 255.90625 135.953125 257.714844 132.632812 C 258.652344 130.910156 259.433594 129.109375 259.851562 127.183594 C 260.121094 125.96875 260.246094 124.742188 260.003906 123.507812 C 259.550781 121.167969 258.125 119.726562 255.855469 119.101562 C 254.46875 118.71875 253.058594 118.734375 251.640625 118.925781 C 248.660156 119.324219 245.882812 120.367188 243.1875 121.652344 C 239.195312 123.558594 235.496094 125.953125 231.9375 128.558594 C 226.015625 132.886719 220.488281 137.664062 215.472656 143.019531 C 214.242188 144.332031 213.046875 145.675781 212.015625 147.152344 C 211.976562 147.210938 211.925781 147.257812 211.847656 147.351562 C 207.402344 134.234375 200.777344 122.429688 191.390625 112.179688 C 191.761719 112.105469 192.109375 112.039062 192.457031 111.960938 C 194.503906 111.515625 196.429688 110.71875 198.351562 109.898438 C 203.226562 107.8125 207.769531 105.160156 211.984375 101.941406 C 212.960938 101.191406 213.894531 100.382812 214.875 99.578125 C 214.898438 99.671875 214.917969 99.765625 214.929688 99.863281 C 215.058594 103.273438 215.191406 106.683594 215.308594 110.097656 C 215.375 112.09375 215.40625 114.09375 215.46875 116.085938 C 215.527344 117.84375 215.570312 119.605469 215.703125 121.359375 C 215.8125 122.808594 216.027344 124.242188 216.226562 125.679688 C 216.320312 126.355469 216.710938 126.75 217.273438 126.851562 C 218.011719 126.988281 218.683594 126.53125 218.761719 125.785156 C 218.800781 125.375 218.738281 124.953125 218.699219 124.539062 C 218.648438 124.035156 218.597656 123.53125 218.515625 123.027344 C 218.453125 122.703125 218.539062 122.421875 218.769531 122.179688 C 220.175781 120.617188 221.515625 118.984375 223 117.496094 C 228.140625 112.328125 233.832031 107.832031 239.894531 103.808594 C 244.085938 101.023438 248.433594 98.523438 253 96.398438 C 257.519531 94.300781 262.179688 92.621094 267.085938 91.691406 C 270.6875 91.003906 274.320312 90.75 277.972656 91.117188 C 281.441406 91.460938 284.753906 92.363281 287.71875 94.253906 C 292.480469 97.289062 295.433594 101.597656 296.476562 107.144531 C 297.085938 110.375 296.777344 113.582031 295.925781 116.742188 C 294.949219 120.367188 293.332031 123.699219 291.339844 126.859375 C 288.742188 130.976562 285.613281 134.671875 282.214844 138.144531 C 276.15625 144.34375 269.421875 149.734375 262.238281 154.582031 C 261.535156 155.058594 260.847656 155.566406 260.164062 156.070312 C 259.957031 156.222656 259.769531 156.390625 259.605469 156.585938 C 259.402344 156.808594 259.292969 157.074219 259.28125 157.378906 C 259.269531 157.679688 259.359375 157.953125 259.542969 158.191406 C 259.726562 158.433594 259.964844 158.589844 260.257812 158.660156 C 260.550781 158.734375 260.835938 158.707031 261.109375 158.578125 C 261.308594 158.488281 261.492188 158.375 261.667969 158.246094 C 262.378906 157.738281 263.085938 157.234375 263.78125 156.710938 C 264.375 156.269531 265.0625 156.027344 265.753906 155.8125 C 268.324219 155.03125 270.929688 154.410156 273.578125 153.953125 C 276.316406 153.464844 279.078125 153.195312 281.859375 153.140625 C 285.65625 153.085938 289.394531 153.46875 292.980469 154.828125 C 295.339844 155.71875 297.4375 157.015625 299.109375 158.933594 C 300.785156 160.851562 301.757812 163.117188 302.183594 165.617188 C 302.71875 168.769531 302.40625 171.875 301.585938 174.945312 Z M 301.585938 174.945312 " fill-opacity="1" fill-rule="nonzero"/></g><path fill="#ff5757" d="M 301.585938 174.945312 C 300.714844 178.230469 299.300781 181.28125 297.578125 184.195312 C 294.363281 189.632812 290.296875 194.367188 285.667969 198.636719 C 280.355469 203.53125 274.464844 207.621094 268.164062 211.132812 C 259.972656 215.699219 251.332031 219.171875 242.351562 221.820312 C 238.105469 223.070312 233.804688 224.105469 229.464844 224.953125 C 225.832031 225.660156 222.175781 226.234375 218.496094 226.652344 C 214.019531 227.152344 209.535156 227.472656 205.023438 227.40625 C 204.023438 227.394531 203.035156 227.40625 201.960938 227.40625 C 201.992188 227.316406 202.027344 227.226562 202.066406 227.140625 C 203.5 224.816406 204.613281 222.335938 205.722656 219.847656 C 208.894531 212.765625 211.765625 205.5625 214.421875 198.273438 C 214.789062 197.265625 215.132812 196.253906 215.488281 195.246094 C 215.609375 194.890625 215.613281 194.894531 215.980469 194.988281 C 217.460938 195.367188 218.964844 195.597656 220.488281 195.6875 C 222.972656 195.859375 225.457031 195.921875 227.945312 195.890625 C 231.160156 195.851562 234.371094 195.703125 237.566406 195.371094 C 240.054688 195.109375 242.542969 194.816406 245.023438 194.46875 C 246.492188 194.269531 247.945312 193.9375 249.40625 193.664062 C 249.476562 193.652344 249.546875 193.644531 249.667969 193.628906 C 249.683594 193.878906 249.707031 194.109375 249.710938 194.335938 C 249.738281 195.480469 249.761719 196.625 249.78125 197.769531 C 249.785156 198.238281 249.664062 198.617188 249.179688 198.867188 C 248.050781 199.445312 246.949219 200.074219 245.835938 200.683594 C 245.660156 200.773438 245.488281 200.871094 245.320312 200.984375 C 244.75 201.394531 244.570312 202.082031 244.882812 202.660156 C 245.191406 203.242188 245.859375 203.484375 246.519531 203.230469 C 246.894531 203.09375 247.257812 202.933594 247.613281 202.75 C 248.511719 202.269531 249.410156 201.800781 250.273438 201.273438 C 251.496094 200.527344 252.691406 199.734375 253.894531 198.960938 C 258.742188 195.839844 263.351562 192.410156 267.578125 188.476562 C 270.003906 186.21875 272.273438 183.824219 274.144531 181.078125 C 275.316406 179.363281 276.300781 177.554688 276.851562 175.53125 C 277.230469 174.148438 277.363281 172.746094 277.027344 171.335938 C 276.640625 169.714844 275.730469 168.441406 274.398438 167.457031 C 273 166.425781 271.402344 165.859375 269.722656 165.492188 C 267.175781 164.949219 264.605469 164.910156 262.03125 165.144531 C 253.957031 165.890625 246.394531 168.324219 239.253906 172.128906 C 237.519531 173.050781 235.878906 174.117188 234.441406 175.582031 C 233.277344 172.65625 231.566406 170.097656 229.929688 167.488281 C 228.296875 164.882812 226.636719 162.335938 224.539062 160.035156 C 225.511719 159.636719 226.417969 159.273438 227.3125 158.890625 C 230.84375 157.378906 234.140625 155.449219 237.320312 153.304688 C 242.3125 149.929688 246.929688 146.097656 251.035156 141.671875 C 253.597656 138.910156 255.90625 135.953125 257.714844 132.632812 C 258.652344 130.910156 259.433594 129.109375 259.851562 127.183594 C 260.121094 125.96875 260.246094 124.742188 260.003906 123.507812 C 259.550781 121.167969 258.125 119.726562 255.855469 119.101562 C 254.46875 118.71875 253.058594 118.734375 251.640625 118.925781 C 248.660156 119.324219 245.882812 120.367188 243.1875 121.652344 C 239.195312 123.558594 235.496094 125.953125 231.9375 128.558594 C 226.015625 132.886719 220.488281 137.664062 215.472656 143.019531 C 214.242188 144.332031 213.046875 145.675781 212.015625 147.152344 C 211.976562 147.210938 211.925781 147.257812 211.847656 147.351562 C 207.402344 134.234375 200.777344 122.429688 191.390625 112.179688 C 191.761719 112.105469 192.109375 112.039062 192.457031 111.960938 C 194.503906 111.515625 196.429688 110.71875 198.351562 109.898438 C 203.226562 107.8125 207.769531 105.160156 211.984375 101.941406 C 212.960938 101.191406 213.894531 100.382812 214.875 99.578125 C 214.898438 99.671875 214.917969 99.765625 214.929688 99.863281 C 215.058594 103.273438 215.191406 106.683594 215.308594 110.097656 C 215.375 112.09375 215.40625 114.09375 215.46875 116.085938 C 215.527344 117.84375 215.570312 119.605469 215.703125 121.359375 C 215.8125 122.808594 216.027344 124.242188 216.226562 125.679688 C 216.320312 126.355469 216.710938 126.75 217.273438 126.851562 C 218.011719 126.988281 218.683594 126.53125 218.761719 125.785156 C 218.800781 125.375 218.738281 124.953125 218.699219 124.539062 C 218.648438 124.035156 218.597656 123.53125 218.515625 123.027344 C 218.453125 122.703125 218.539062 122.421875 218.769531 122.179688 C 220.175781 120.617188 221.515625 118.984375 223 117.496094 C 228.140625 112.328125 233.832031 107.832031 239.894531 103.808594 C 244.085938 101.023438 248.433594 98.523438 253 96.398438 C 257.519531 94.300781 262.179688 92.621094 267.085938 91.691406 C 270.6875 91.003906 274.320312 90.75 277.972656 91.117188 C 281.441406 91.460938 284.753906 92.363281 287.71875 94.253906 C 292.480469 97.289062 295.433594 101.597656 296.476562 107.144531 C 297.085938 110.375 296.777344 113.582031 295.925781 116.742188 C 294.949219 120.367188 293.332031 123.699219 291.339844 126.859375 C 288.742188 130.976562 285.613281 134.671875 282.214844 138.144531 C 276.15625 144.34375 269.421875 149.734375 262.238281 154.582031 C 261.535156 155.058594 260.847656 155.566406 260.164062 156.070312 C 259.957031 156.222656 259.769531 156.390625 259.605469 156.585938 C 259.402344 156.808594 259.292969 157.074219 259.28125 157.378906 C 259.269531 157.679688 259.359375 157.953125 259.542969 158.191406 C 259.726562 158.433594 259.964844 158.589844 260.257812 158.660156 C 260.550781 158.734375 260.835938 158.707031 261.109375 158.578125 C 261.308594 158.488281 261.492188 158.375 261.667969 158.246094 C 262.378906 157.738281 263.085938 157.234375 263.78125 156.710938 C 264.375 156.269531 265.0625 156.027344 265.753906 155.8125 C 268.324219 155.03125 270.929688 154.410156 273.578125 153.953125 C 276.316406 153.464844 279.078125 153.195312 281.859375 153.140625 C 285.65625 153.085938 289.394531 153.46875 292.980469 154.828125 C 295.339844 155.71875 297.4375 157.015625 299.109375 158.933594 C 300.785156 160.851562 301.757812 163.117188 302.183594 165.617188 C 302.71875 168.769531 302.40625 171.875 301.585938 174.945312 Z M 301.585938 174.945312 " fill-opacity="1" fill-rule="nonzero"/><g clip-path="url(#a21bd2e57d)"><path fill="#ff5757" d="M 83.292969 107.953125 C 82.582031 107.953125 82.046875 108.019531 81.480469 108.117188 L 44.582031 114.496094 C 40.507812 115.199219 37.238281 118.21875 36.191406 122.199219 L 35.105469 126.300781 C 33.519531 132.335938 37.480469 138.261719 43.375 139.339844 C 43.835938 139.746094 44.347656 140.085938 44.878906 140.410156 C 44.472656 142.101562 43.980469 144 43.316406 146.257812 L 22.949219 215.902344 C 21.167969 222 25.140625 228.082031 31.113281 229.1875 C 32.945312 230.816406 35.34375 231.839844 38.066406 231.839844 L 65.671875 231.839844 C 70.394531 231.839844 74.535156 228.691406 75.8125 224.164062 L 76.402344 222.085938 C 77.5625 225.65625 80.613281 228.464844 84.480469 229.1875 C 86.316406 230.816406 88.71875 231.839844 91.441406 231.839844 L 118.835938 231.839844 C 123.503906 231.839844 127.609375 228.769531 128.933594 224.300781 C 128.933594 224.300781 131.492188 215.65625 133.453125 209.039062 C 133.75 214.886719 136.328125 220.117188 140.859375 224.222656 C 143.171875 226.3125 145.863281 227.863281 148.828125 228.925781 C 153.042969 231.679688 158.023438 233.027344 163.550781 233.027344 C 171.070312 233.027344 178.628906 230.070312 186.257812 224.523438 C 193.628906 219.160156 200.082031 211.121094 205.761719 200.503906 C 208.34375 195.671875 206.785156 189.671875 202.1875 186.695312 L 198.511719 184.3125 C 197.429688 183.613281 196.265625 183.148438 195.082031 182.882812 L 194.21875 182.320312 L 202.125 155.746094 C 204.558594 147.480469 205.8125 140.566406 205.8125 134.800781 C 205.8125 127.976562 203.484375 121.9375 198.878906 117.332031 C 196.371094 114.828125 193.421875 113.019531 190.15625 111.863281 C 186.257812 109.273438 181.734375 107.953125 176.84375 107.953125 C 171.363281 107.953125 166.136719 109.359375 161.335938 112.101562 L 161.328125 112.09375 C 161.285156 112.117188 161.242188 112.144531 161.199219 112.167969 C 161.191406 112.171875 161.1875 112.175781 161.179688 112.179688 C 157.453125 114.265625 153.542969 117.414062 149.410156 121.429688 C 148.902344 120.558594 148.363281 119.707031 147.75 118.878906 C 145.246094 115.511719 141.851562 113.148438 137.839844 111.792969 C 133.996094 109.199219 129.332031 107.953125 124.109375 107.953125 C 118.171875 107.953125 112.347656 109.546875 106.753906 112.613281 C 105.640625 113.222656 104.5 113.96875 103.335938 114.792969 C 101.800781 112.667969 99.492188 111.113281 96.75 110.605469 C 94.917969 108.976562 92.511719 107.953125 89.792969 107.953125 C 89.53125 107.953125 83.554688 107.953125 83.292969 107.953125 Z M 83.292969 107.953125 " fill-opacity="1" fill-rule="nonzero"/></g><g clip-path="url(#eb68f1ecd9)"><path fill="#ffffff" d="M 83.292969 106.996094 C 82.585938 106.996094 82.011719 107.054688 81.320312 107.175781 L 44.417969 113.554688 C 39.984375 114.320312 36.414062 117.609375 35.269531 121.957031 L 34.183594 126.054688 C 32.496094 132.464844 36.582031 138.886719 42.949219 140.203125 C 43.191406 140.40625 43.496094 140.605469 43.785156 140.800781 C 43.359375 142.527344 42.933594 144.175781 42.398438 145.984375 L 22.035156 215.636719 C 20.144531 222.101562 24.214844 228.679688 30.667969 230.042969 C 32.726562 231.800781 35.292969 232.796875 38.066406 232.796875 L 65.671875 232.796875 C 70.695312 232.796875 75.101562 229.519531 76.609375 224.761719 C 78.230469 227.445312 80.902344 229.40625 84.0625 230.070312 C 86.117188 231.808594 88.675781 232.796875 91.441406 232.796875 L 118.835938 232.796875 C 123.925781 232.796875 128.402344 229.453125 129.847656 224.574219 C 129.886719 224.445312 131.832031 217.894531 133.15625 213.425781 C 134.25 217.769531 136.640625 221.691406 140.21875 224.933594 C 142.546875 227.039062 145.289062 228.644531 148.382812 229.769531 C 152.703125 232.574219 157.824219 233.984375 163.550781 233.984375 C 171.164062 233.984375 178.902344 231.058594 186.824219 225.300781 C 194.253906 219.894531 200.808594 211.796875 206.605469 200.957031 C 209.425781 195.6875 207.726562 189.140625 202.707031 185.894531 L 199.03125 183.507812 C 197.949219 182.808594 196.761719 182.324219 195.515625 182.019531 L 195.335938 181.910156 L 203.039062 156.019531 C 205.53125 147.550781 206.769531 140.589844 206.769531 134.800781 C 206.769531 127.664062 204.300781 121.40625 199.554688 116.65625 C 197.003906 114.109375 193.960938 112.207031 190.535156 110.980469 C 186.515625 108.355469 181.867188 106.996094 176.84375 106.996094 C 171.226562 106.996094 165.851562 108.4375 160.90625 111.246094 C 160.894531 111.253906 160.878906 111.246094 160.863281 111.253906 C 160.828125 111.273438 160.753906 111.3125 160.753906 111.3125 C 160.765625 111.308594 160.789062 111.304688 160.789062 111.304688 C 160.773438 111.3125 160.773438 111.316406 160.710938 111.347656 C 157.277344 113.269531 153.601562 116.148438 149.597656 119.949219 C 149.242188 119.386719 148.882812 118.796875 148.519531 118.308594 C 145.96875 114.875 142.488281 112.402344 138.304688 110.957031 C 134.359375 108.316406 129.5625 106.996094 124.109375 106.996094 C 118.042969 106.996094 112.058594 108.613281 106.292969 111.777344 C 105.4375 112.246094 104.488281 112.882812 103.515625 113.546875 C 101.886719 111.625 99.691406 110.269531 97.1875 109.742188 C 95.132812 107.992188 92.566406 106.996094 89.792969 106.996094 C 89.597656 106.996094 83.386719 106.996094 83.292969 106.996094 Z M 83.292969 108.910156 C 83.386719 108.910156 89.597656 108.910156 89.792969 108.910156 C 92.175781 108.910156 94.378906 109.777344 96.117188 111.324219 C 96.25 111.4375 96.410156 111.511719 96.578125 111.546875 C 99.011719 111.996094 101.125 113.363281 102.554688 115.351562 C 102.863281 115.777344 103.460938 115.875 103.890625 115.570312 C 105.121094 114.699219 106.207031 114.003906 107.214844 113.453125 C 112.707031 110.4375 118.375 108.910156 124.109375 108.910156 C 129.230469 108.910156 133.679688 110.144531 137.300781 112.589844 C 137.371094 112.636719 137.453125 112.671875 137.535156 112.699219 C 141.425781 114.015625 144.632812 116.296875 146.980469 119.453125 C 147.515625 120.171875 148.015625 120.953125 148.578125 121.914062 C 148.894531 122.453125 149.628906 122.546875 150.074219 122.113281 C 154.3125 117.996094 158.132812 114.988281 161.652344 113.015625 C 161.664062 113.011719 161.65625 113.007812 161.675781 113 C 161.699219 112.988281 161.765625 112.945312 161.78125 112.9375 C 161.78125 112.9375 161.789062 112.929688 161.789062 112.929688 C 161.796875 112.925781 161.808594 112.933594 161.8125 112.929688 C 166.484375 110.265625 171.542969 108.910156 176.84375 108.910156 C 181.558594 108.910156 185.890625 110.179688 189.625 112.65625 C 189.691406 112.699219 189.765625 112.742188 189.839844 112.769531 C 193.027344 113.898438 195.839844 115.648438 198.203125 118.007812 C 202.582031 122.386719 204.855469 128.160156 204.855469 134.800781 C 204.855469 140.382812 203.65625 147.167969 201.210938 155.472656 L 193.304688 182.046875 C 193.183594 182.453125 193.339844 182.890625 193.695312 183.125 L 194.558594 183.6875 C 194.65625 183.75 194.765625 183.792969 194.875 183.816406 C 195.992188 184.0625 197.035156 184.5 197.988281 185.117188 L 201.664062 187.5 C 205.851562 190.207031 207.261719 195.664062 204.914062 200.050781 C 199.242188 210.652344 192.867188 218.527344 185.695312 223.742188 C 178.082031 229.28125 170.722656 232.070312 163.550781 232.070312 C 158.148438 232.070312 153.363281 230.746094 149.347656 228.121094 C 149.285156 228.078125 149.222656 228.050781 149.152344 228.027344 C 146.238281 226.980469 143.667969 225.476562 141.5 223.511719 C 137.136719 219.5625 134.695312 214.558594 134.414062 208.984375 C 134.359375 207.910156 132.847656 207.730469 132.539062 208.765625 C 132.183594 209.960938 128.070312 223.847656 128.019531 224.027344 C 126.8125 228.09375 123.078125 230.882812 118.835938 230.882812 L 91.441406 230.882812 C 89.058594 230.882812 86.855469 230.015625 85.113281 228.472656 C 84.984375 228.355469 84.832031 228.28125 84.660156 228.25 C 81.203125 227.601562 78.390625 225.089844 77.316406 221.785156 C 77.023438 220.886719 75.738281 220.910156 75.480469 221.820312 L 74.890625 223.898438 C 73.726562 228.023438 69.960938 230.882812 65.671875 230.882812 L 38.066406 230.882812 C 35.6875 230.882812 33.488281 230.015625 31.746094 228.472656 C 31.617188 228.355469 31.457031 228.28125 31.285156 228.25 C 25.773438 227.226562 22.269531 221.628906 23.863281 216.167969 L 44.230469 146.523438 C 44.835938 144.472656 45.332031 142.609375 45.8125 140.632812 C 45.910156 140.226562 45.730469 139.804688 45.375 139.589844 C 44.792969 139.234375 44.371094 138.941406 44.007812 138.621094 C 43.878906 138.507812 43.714844 138.429688 43.546875 138.398438 C 38.117188 137.40625 34.605469 131.964844 36.03125 126.550781 L 37.117188 122.445312 C 38.070312 118.820312 41.050781 116.074219 44.742188 115.433594 L 81.644531 109.058594 C 82.234375 108.953125 82.703125 108.910156 83.292969 108.910156 Z M 83.292969 108.910156 " fill-opacity="1" fill-rule="nonzero"/></g><path fill="#ffffff" d="M 83.292969 117.53125 C 83.238281 117.53125 83.183594 117.539062 83.132812 117.546875 L 46.214844 123.933594 C 45.84375 123.996094 45.546875 124.273438 45.453125 124.636719 L 44.367188 128.746094 C 44.207031 129.355469 44.660156 129.953125 45.289062 129.953125 C 48.863281 129.953125 51.273438 130.175781 52.4375 130.59375 C 53.5625 131 54.335938 131.539062 54.789062 132.191406 C 55.25 132.855469 55.488281 133.65625 55.488281 134.621094 C 55.488281 137.390625 54.492188 142.191406 52.496094 148.96875 L 32.140625 218.585938 C 31.960938 219.199219 32.417969 219.808594 33.054688 219.808594 L 60.671875 219.808594 C 61.101562 219.808594 61.46875 219.53125 61.585938 219.117188 L 70.324219 188.160156 C 77.507812 173.011719 85.472656 160.058594 94.21875 149.300781 C 99.796875 142.535156 103.875 139.152344 106.136719 139.152344 C 106.386719 139.152344 106.648438 139.265625 106.949219 139.546875 C 107.234375 139.808594 107.351562 140.035156 107.351562 140.253906 C 107.351562 141.582031 106.820312 144.148438 105.761719 147.890625 L 85.515625 218.597656 C 85.339844 219.207031 85.804688 219.808594 86.441406 219.808594 L 113.824219 219.808594 C 114.25 219.808594 114.628906 219.53125 114.75 219.125 L 121.347656 196.820312 C 123.359375 189.855469 125.386719 184.203125 127.417969 179.847656 C 129.449219 175.5 133.125 169.421875 138.441406 161.628906 C 143.753906 153.835938 147.824219 148.441406 150.632812 145.453125 C 153.390625 142.519531 155.433594 140.710938 156.683594 140.042969 C 157.496094 139.667969 158.292969 139.476562 159.085938 139.476562 C 159.328125 139.476562 159.609375 139.605469 159.949219 139.921875 C 160.273438 140.222656 160.402344 140.46875 160.402344 140.683594 C 160.402344 142 159.582031 145.617188 157.949219 151.359375 L 145.714844 193.582031 C 143.886719 199.941406 142.972656 204.703125 142.972656 207.917969 C 142.972656 211.445312 144.421875 214.53125 147.289062 217.125 C 150.144531 219.710938 153.917969 221.007812 158.546875 221.007812 C 163.828125 221.007812 169.515625 218.761719 175.621094 214.320312 C 181.707031 209.898438 187.257812 202.96875 192.300781 193.539062 C 192.539062 193.097656 192.394531 192.550781 191.976562 192.28125 L 188.300781 189.902344 C 187.875 189.625 187.300781 189.730469 187.003906 190.144531 C 185.707031 191.941406 184.730469 193.273438 184.085938 194.136719 C 181.234375 198.128906 178.546875 201.140625 176.023438 203.171875 L 176 203.191406 C 175.597656 203.539062 175.136719 203.710938 174.570312 203.710938 C 174.273438 203.710938 173.996094 203.585938 173.699219 203.265625 C 173.386719 202.929688 173.253906 202.613281 173.253906 202.292969 C 173.253906 200.691406 174.144531 196.875 175.921875 190.980469 L 187.933594 150.589844 C 190.125 143.144531 191.226562 137.070312 191.226562 132.347656 C 191.226562 127.988281 189.855469 124.398438 187.105469 121.652344 C 184.359375 118.90625 180.921875 117.53125 176.84375 117.53125 C 172.996094 117.53125 169.363281 118.511719 165.96875 120.472656 C 161.175781 123.125 155.582031 128.179688 149.160156 135.621094 C 145.542969 139.808594 139.8125 147.882812 132.207031 159.40625 L 135.429688 147.871094 C 137.398438 140.941406 138.386719 135.664062 138.386719 132.023438 C 138.386719 128.421875 137.277344 125.117188 135.0625 122.136719 C 132.769531 119.058594 129.082031 117.53125 124.109375 117.53125 C 119.828125 117.53125 115.578125 118.695312 111.363281 121.007812 C 107.160156 123.316406 101.910156 128.140625 95.5625 135.511719 C 91.851562 139.847656 86.15625 147.863281 78.695312 159.132812 L 90.707031 118.761719 C 90.890625 118.148438 90.433594 117.53125 89.792969 117.53125 C 89.589844 117.53125 83.496094 117.53125 83.292969 117.53125 Z M 83.292969 117.53125 " fill-opacity="1" fill-rule="nonzero"/><path fill="#280594" d="M 94.804688 120.941406 L 80.945312 167.496094 C 90.253906 153.203125 97.039062 143.570312 101.300781 138.589844 C 107.578125 131.296875 112.757812 126.535156 116.835938 124.296875 C 120.914062 122.058594 125.011719 120.941406 129.125 120.941406 C 133.816406 120.941406 137.210938 122.347656 139.300781 125.164062 C 141.394531 127.976562 142.441406 131.082031 142.441406 134.472656 C 142.441406 138.011719 141.46875 143.207031 139.519531 150.066406 L 134.648438 167.496094 C 144.03125 153.058594 150.777344 143.460938 154.894531 138.695312 C 161.246094 131.335938 166.769531 126.355469 171.460938 123.753906 C 174.707031 121.878906 178.171875 120.941406 181.851562 120.941406 C 185.679688 120.941406 188.871094 122.222656 191.433594 124.785156 C 193.996094 127.347656 195.277344 130.683594 195.277344 134.796875 C 195.277344 139.417969 194.195312 145.410156 192.03125 152.773438 L 180.011719 193.15625 C 178.207031 199.148438 177.304688 203.011719 177.304688 204.742188 C 177.304688 205.320312 177.539062 205.859375 178.007812 206.367188 C 178.480469 206.871094 179 207.125 179.578125 207.125 C 180.375 207.125 181.058594 206.871094 181.636719 206.367188 C 184.234375 204.273438 186.976562 201.207031 189.867188 197.164062 C 190.515625 196.296875 191.488281 194.960938 192.789062 193.15625 L 196.46875 195.539062 C 191.488281 204.851562 186.023438 211.671875 180.066406 216.003906 C 174.113281 220.332031 168.609375 222.5 163.554688 222.5 C 159.152344 222.5 155.617188 221.289062 152.945312 218.871094 C 150.273438 216.453125 148.9375 213.621094 148.9375 210.371094 C 148.9375 207.269531 149.839844 202.574219 151.644531 196.296875 L 163.878906 154.070312 C 165.539062 148.222656 166.371094 144.578125 166.371094 143.136719 C 166.371094 142.628906 166.117188 142.144531 165.613281 141.675781 C 165.105469 141.203125 164.601562 140.96875 164.097656 140.96875 C 163.160156 140.96875 162.21875 141.1875 161.28125 141.621094 C 159.910156 142.339844 157.796875 144.21875 154.949219 147.25 C 152.097656 150.28125 148 155.714844 142.660156 163.542969 C 137.316406 171.375 133.617188 177.492188 131.5625 181.898438 C 129.503906 186.300781 127.464844 192.003906 125.445312 199.003906 L 118.839844 221.308594 L 91.445312 221.308594 L 111.691406 150.605469 C 112.777344 146.78125 113.316406 144.144531 113.316406 142.703125 C 113.316406 142.199219 113.082031 141.726562 112.613281 141.296875 C 112.144531 140.863281 111.65625 140.644531 111.152344 140.644531 C 108.480469 140.644531 104.257812 144.144531 98.484375 151.148438 C 89.679688 161.976562 81.667969 175.003906 74.449219 190.234375 L 65.679688 221.308594 L 38.070312 221.308594 L 58.425781 151.6875 C 60.445312 144.832031 61.457031 139.960938 61.457031 137.074219 C 61.457031 135.917969 61.167969 134.925781 60.589844 134.09375 C 60.011719 133.265625 59.074219 132.617188 57.773438 132.144531 C 56.476562 131.675781 53.984375 131.441406 50.304688 131.441406 L 51.386719 127.328125 L 88.308594 120.941406 Z M 94.804688 120.941406 " fill-opacity="1" fill-rule="nonzero"/><path fill="#ffffff" d="M 88.308594 119.984375 C 88.253906 119.984375 88.199219 119.984375 88.144531 119.992188 L 51.226562 126.378906 C 50.859375 126.445312 50.554688 126.71875 50.457031 127.082031 L 49.378906 131.203125 C 49.21875 131.808594 49.675781 132.398438 50.304688 132.398438 C 53.878906 132.398438 56.289062 132.628906 57.453125 133.050781 C 58.578125 133.457031 59.347656 133.988281 59.800781 134.640625 C 60.265625 135.304688 60.496094 136.109375 60.496094 137.074219 C 60.496094 139.847656 59.5 144.648438 57.503906 151.421875 L 37.152344 221.035156 C 36.976562 221.648438 37.429688 222.265625 38.070312 222.265625 L 65.675781 222.265625 C 66.105469 222.265625 66.484375 221.976562 66.597656 221.5625 L 75.355469 190.546875 C 82.53125 175.421875 90.488281 162.496094 99.226562 151.757812 C 104.804688 144.992188 108.890625 141.597656 111.152344 141.597656 C 111.398438 141.597656 111.664062 141.722656 111.964844 142 C 112.25 142.261719 112.359375 142.484375 112.359375 142.703125 C 112.359375 144.03125 111.835938 146.601562 110.777344 150.34375 L 90.53125 221.042969 C 90.355469 221.65625 90.808594 222.265625 91.445312 222.265625 L 118.839844 222.265625 C 119.261719 222.265625 119.632812 221.988281 119.753906 221.582031 L 126.363281 199.273438 C 128.371094 192.3125 130.398438 186.65625 132.433594 182.304688 C 134.464844 177.957031 138.136719 171.878906 143.453125 164.085938 C 148.769531 156.292969 152.835938 150.894531 155.644531 147.910156 C 158.421875 144.957031 160.464844 143.140625 161.714844 142.480469 C 161.71875 142.476562 161.722656 142.472656 161.722656 142.472656 C 162.523438 142.109375 163.308594 141.921875 164.09375 141.921875 C 164.332031 141.921875 164.625 142.0625 164.964844 142.375 C 165.289062 142.679688 165.410156 142.925781 165.410156 143.136719 C 165.410156 144.453125 164.585938 148.0625 162.953125 153.808594 L 150.730469 196.027344 C 148.902344 202.386719 147.984375 207.160156 147.984375 210.371094 C 147.984375 213.898438 149.4375 216.988281 152.300781 219.582031 C 155.160156 222.167969 158.925781 223.453125 163.554688 223.453125 C 168.832031 223.453125 174.523438 221.21875 180.628906 216.777344 C 186.710938 212.351562 192.273438 205.421875 197.316406 195.992188 C 197.550781 195.554688 197.410156 195.003906 196.992188 194.734375 L 193.304688 192.351562 C 192.878906 192.074219 192.304688 192.183594 192.007812 192.597656 C 190.710938 194.398438 189.746094 195.730469 189.101562 196.589844 C 186.246094 200.585938 183.558594 203.585938 181.039062 205.621094 L 181.003906 205.644531 C 180.601562 205.996094 180.140625 206.167969 179.578125 206.167969 C 179.277344 206.167969 179.007812 206.03125 178.710938 205.714844 C 178.402344 205.378906 178.257812 205.0625 178.257812 204.738281 C 178.257812 203.136719 179.152344 199.328125 180.925781 193.4375 L 192.949219 153.046875 C 195.136719 145.601562 196.238281 139.527344 196.238281 134.800781 C 196.238281 130.441406 194.859375 126.855469 192.109375 124.105469 C 189.367188 121.359375 185.925781 119.984375 181.851562 119.984375 C 178 119.984375 174.375 120.964844 170.984375 122.925781 C 166.191406 125.582031 160.585938 130.628906 154.167969 138.066406 C 150.550781 142.253906 144.824219 150.332031 137.222656 161.851562 L 140.445312 150.320312 C 142.414062 143.386719 143.402344 138.121094 143.402344 134.476562 C 143.402344 130.875 142.28125 127.574219 140.066406 124.59375 C 137.777344 121.511719 134.097656 119.984375 129.125 119.984375 C 124.84375 119.984375 120.589844 121.144531 116.375 123.457031 C 112.175781 125.761719 106.925781 130.59375 100.578125 137.964844 C 96.867188 142.304688 91.164062 150.320312 83.699219 161.597656 L 95.71875 121.214844 C 95.902344 120.601562 95.445312 119.984375 94.804688 119.984375 C 94.601562 119.984375 88.511719 119.984375 88.308594 119.984375 Z M 88.367188 121.898438 C 88.613281 121.898438 91.867188 121.898438 93.515625 121.898438 L 80.023438 167.222656 C 79.707031 168.28125 81.148438 168.941406 81.75 168.019531 C 91.039062 153.757812 97.804688 144.152344 102.03125 139.214844 C 108.238281 132.003906 113.34375 127.300781 117.300781 125.132812 C 121.242188 122.96875 125.175781 121.898438 129.125 121.898438 C 133.535156 121.898438 136.640625 123.183594 138.535156 125.730469 C 140.507812 128.382812 141.488281 131.292969 141.488281 134.476562 C 141.488281 137.90625 140.523438 143.027344 138.597656 149.808594 L 133.722656 167.238281 C 133.429688 168.296875 134.851562 168.9375 135.449219 168.019531 C 144.8125 153.617188 151.542969 144.046875 155.621094 139.324219 C 161.902344 132.039062 167.347656 127.128906 171.921875 124.59375 C 175.042969 122.792969 178.335938 121.898438 181.851562 121.898438 C 185.425781 121.898438 188.378906 123.078125 190.757812 125.457031 C 193.136719 127.832031 194.324219 130.933594 194.324219 134.800781 C 194.324219 139.316406 193.25 145.21875 191.109375 152.5 L 179.097656 192.878906 C 177.265625 198.964844 176.34375 202.875 176.34375 204.738281 C 176.34375 205.570312 176.683594 206.347656 177.308594 207.023438 C 177.953125 207.710938 178.71875 208.082031 179.578125 208.082031 C 180.585938 208.082031 181.488281 207.753906 182.234375 207.117188 C 182.242188 207.109375 182.246094 207.105469 182.25 207.097656 C 182.257812 207.09375 182.265625 207.09375 182.269531 207.089844 C 184.933594 204.9375 187.726562 201.8125 190.648438 197.71875 C 191.171875 197.019531 192.066406 195.789062 193.03125 194.453125 L 195.195312 195.855469 C 190.394531 204.644531 185.164062 211.113281 179.507812 215.230469 C 173.703125 219.449219 168.378906 221.539062 163.554688 221.539062 C 159.375 221.539062 156.070312 220.410156 153.585938 218.160156 C 151.109375 215.917969 149.898438 213.34375 149.898438 210.371094 C 149.898438 207.378906 150.785156 202.765625 152.566406 196.566406 L 164.800781 154.339844 C 166.492188 148.386719 167.324219 144.707031 167.324219 143.136719 C 167.324219 142.339844 166.949219 141.613281 166.265625 140.976562 C 165.59375 140.351562 164.863281 140.007812 164.09375 140.007812 C 163.011719 140.007812 161.9375 140.261719 160.878906 140.753906 L 160.835938 140.769531 C 159.339844 141.554688 157.171875 143.484375 154.25 146.59375 C 151.359375 149.667969 147.238281 155.136719 141.871094 163.007812 C 136.503906 170.878906 132.78125 177.035156 130.695312 181.492188 C 128.617188 185.945312 126.558594 191.691406 124.523438 198.738281 L 118.128906 220.351562 L 92.71875 220.351562 L 112.613281 150.867188 C 113.722656 146.957031 114.273438 144.261719 114.273438 142.703125 C 114.273438 141.910156 113.917969 141.195312 113.265625 140.589844 C 112.628906 140.003906 111.914062 139.683594 111.152344 139.683594 C 108.074219 139.683594 103.710938 143.308594 97.746094 150.542969 C 88.886719 161.4375 80.835938 174.523438 73.585938 189.820312 C 73.5625 189.867188 73.539062 189.921875 73.523438 189.972656 L 64.949219 220.351562 L 39.34375 220.351562 L 59.339844 151.960938 C 61.386719 145.023438 62.410156 140.082031 62.410156 137.074219 C 62.410156 135.730469 62.070312 134.542969 61.375 133.546875 C 60.675781 132.535156 59.574219 131.777344 58.101562 131.246094 C 56.851562 130.792969 54.5625 130.589844 51.535156 130.535156 L 52.160156 128.167969 Z M 88.367188 121.898438 " fill-opacity="1" fill-rule="nonzero"/></svg>