<svg xmlns="http://www.w3.org/2000/svg" xmlns:xlink="http://www.w3.org/1999/xlink" width="500" zoomAndPan="magnify" viewBox="0 0 375 374.999991" height="500" preserveAspectRatio="xMidYMid meet" version="1.0"><defs><clipPath id="ad4f966ec1"><path d="M 226 150 L 346.648438 150 L 346.648438 295.457031 L 226 295.457031 Z M 226 150 " clip-rule="nonzero"/></clipPath><clipPath id="cacdfab956"><path d="M 222.148438 146.207031 L 343 146.207031 L 343 292 L 222.148438 292 Z M 222.148438 146.207031 " clip-rule="nonzero"/></clipPath><clipPath id="0da7ac3ab1"><path d="M 12 100.757812 L 247 100.757812 L 247 260.507812 L 12 260.507812 Z M 12 100.757812 " clip-rule="nonzero"/></clipPath></defs><g clip-path="url(#ad4f966ec1)"><path fill="#280594" d="M 346.058594 228.375 C 345.5 225.792969 344.445312 223.445312 342.761719 221.394531 C 340.792969 218.996094 338.292969 217.347656 335.433594 216.207031 C 332.277344 214.949219 328.976562 214.386719 325.601562 214.230469 C 321.460938 214.035156 317.363281 214.40625 313.292969 215.171875 L 311.160156 215.570312 C 311.363281 215.390625 311.46875 215.292969 311.582031 215.203125 C 313.203125 213.902344 314.851562 212.628906 316.445312 211.292969 C 321.253906 207.265625 325.769531 202.9375 329.792969 198.113281 C 332.4375 194.941406 334.820312 191.582031 336.730469 187.90625 C 338.824219 183.882812 340.300781 179.671875 340.652344 175.117188 C 340.871094 172.253906 340.652344 169.425781 339.742188 166.695312 C 337.289062 159.265625 332.316406 154.324219 324.882812 151.902344 C 320.609375 150.511719 316.207031 150.316406 311.765625 150.710938 C 308.296875 151.015625 304.902344 151.726562 301.574219 152.734375 C 296.238281 154.347656 291.203125 156.648438 286.335938 159.328125 C 279.53125 163.078125 273.1875 167.496094 267.242188 172.488281 C 264.335938 174.929688 261.53125 177.472656 258.96875 180.277344 C 258.535156 180.753906 258.121094 181.246094 257.625 181.8125 C 257.605469 181.511719 257.582031 181.300781 257.578125 181.089844 C 257.425781 176.523438 257.277344 171.957031 257.128906 167.390625 C 257.042969 164.660156 256.964844 161.929688 256.882812 159.203125 C 256.882812 158.996094 256.867188 158.792969 256.835938 158.589844 C 256.730469 157.992188 256.195312 157.441406 255.632812 157.332031 C 254.984375 157.207031 254.523438 157.480469 254.171875 158.011719 C 253.582031 158.898438 252.84375 159.65625 252.058594 160.371094 C 250.503906 161.785156 248.820312 163.039062 247.082031 164.21875 C 242.113281 167.605469 236.800781 170.28125 231.058594 172.09375 C 230.226562 172.359375 229.390625 172.621094 228.503906 172.625 C 227.964844 172.613281 227.488281 172.78125 227.074219 173.121094 C 226.316406 173.734375 226.238281 174.386719 226.886719 175.109375 C 227.910156 176.257812 228.945312 177.402344 229.953125 178.574219 C 232.257812 181.25 234.441406 184.019531 236.414062 186.957031 C 241.832031 195.015625 246.125 203.617188 248.960938 212.921875 C 249.074219 213.316406 249.234375 213.691406 249.441406 214.046875 C 250.019531 215 251.390625 215 252.003906 214.074219 C 252.308594 213.589844 252.640625 213.117188 253 212.667969 C 254.035156 211.429688 255.066406 210.183594 256.15625 208.988281 C 261.984375 202.632812 268.507812 197.082031 275.585938 192.175781 C 278.839844 189.921875 282.222656 187.882812 285.871094 186.316406 C 288.082031 185.375 290.34375 184.617188 292.753906 184.386719 C 293.777344 184.285156 294.796875 184.320312 295.785156 184.640625 C 296.910156 185.007812 297.601562 185.753906 297.820312 186.921875 C 297.984375 187.816406 297.910156 188.699219 297.726562 189.582031 C 297.398438 191.15625 296.792969 192.628906 296.054688 194.050781 C 294.457031 197.140625 292.375 199.890625 290.074219 202.476562 C 286.53125 206.4375 282.554688 209.925781 278.261719 213.046875 C 273.636719 216.414062 268.769531 219.339844 263.382812 221.339844 C 263.050781 221.46875 262.746094 221.640625 262.460938 221.851562 C 262.273438 221.988281 262.144531 222.203125 261.996094 222.390625 C 261.863281 222.5625 261.753906 222.753906 261.609375 222.910156 C 261.199219 223.351562 261.140625 223.949219 261.492188 224.441406 C 261.621094 224.621094 261.777344 224.78125 261.910156 224.960938 C 263.742188 227.414062 265.535156 229.902344 267.152344 232.507812 C 268.957031 235.402344 270.914062 238.214844 272.074219 241.464844 C 272.28125 242.046875 272.6875 242.488281 273.375 242.539062 C 273.445312 242.554688 273.515625 242.578125 273.578125 242.613281 C 274.355469 242.933594 274.703125 242.875 275.257812 242.269531 C 275.933594 241.546875 276.6875 240.917969 277.515625 240.375 C 280.132812 238.625 282.925781 237.207031 285.835938 236.027344 C 291.6875 233.652344 297.710938 232.007812 304.042969 231.664062 C 305.980469 231.542969 307.902344 231.675781 309.808594 232.054688 C 311.214844 232.34375 312.566406 232.808594 313.71875 233.710938 C 314.589844 234.386719 315.152344 235.242188 315.332031 236.351562 C 315.441406 237.113281 315.40625 237.871094 315.226562 238.617188 C 314.875 240.238281 314.144531 241.691406 313.277344 243.085938 C 311.886719 245.320312 310.179688 247.304688 308.332031 249.167969 C 303.679688 253.867188 298.441406 257.820312 292.90625 261.402344 C 292.796875 261.457031 292.6875 261.5 292.570312 261.539062 C 292.570312 260.980469 292.585938 260.480469 292.570312 259.980469 C 292.539062 259.203125 292.53125 258.417969 292.429688 257.648438 C 292.273438 256.484375 291.558594 255.738281 290.535156 255.605469 C 290.21875 255.566406 289.90625 255.574219 289.59375 255.632812 C 288.316406 255.859375 287.046875 256.152344 285.761719 256.347656 C 283.433594 256.6875 281.09375 256.996094 278.75 257.265625 C 275.800781 257.617188 272.832031 257.792969 269.859375 257.886719 C 265.84375 258.019531 261.835938 257.910156 257.835938 257.554688 C 256.925781 257.492188 256.03125 257.335938 255.152344 257.085938 C 254.871094 257 254.539062 257.066406 254.234375 257.09375 C 254.070312 257.105469 253.914062 257.195312 253.753906 257.222656 C 253.378906 257.289062 253.101562 257.484375 252.914062 257.8125 C 252.761719 258.070312 252.636719 258.335938 252.539062 258.617188 C 252.210938 259.523438 251.914062 260.445312 251.585938 261.351562 C 249.105469 268.207031 246.417969 274.980469 243.519531 281.671875 C 242 285.160156 240.378906 288.601562 238.65625 291.992188 C 238.371094 292.554688 238.078125 293.101562 237.898438 293.714844 C 237.640625 294.589844 238.144531 295.398438 239.058594 295.46875 C 239.296875 295.488281 239.539062 295.460938 239.78125 295.457031 C 240.429688 295.445312 241.082031 295.425781 241.730469 295.421875 C 244.292969 295.410156 246.859375 295.445312 249.417969 295.382812 C 252.761719 295.296875 256.09375 294.960938 259.410156 294.554688 C 262.839844 294.132812 266.246094 293.578125 269.632812 292.925781 C 274.535156 291.980469 279.378906 290.789062 284.160156 289.347656 C 294.15625 286.320312 303.730469 282.3125 312.726562 276.976562 C 318.667969 273.445312 324.226562 269.394531 329.253906 264.640625 C 333.785156 260.355469 337.785156 255.632812 340.992188 250.269531 C 343.421875 246.210938 345.308594 241.9375 346.128906 237.242188 C 346.636719 234.28125 346.695312 231.324219 346.058594 228.375 Z M 346.058594 228.375 " fill-opacity="1" fill-rule="nonzero"/></g><g clip-path="url(#cacdfab956)"><path fill="#280594" d="M 341.96875 224.285156 C 341.410156 221.707031 340.355469 219.355469 338.671875 217.304688 C 336.703125 214.90625 334.203125 213.257812 331.34375 212.117188 C 328.1875 210.859375 324.886719 210.296875 321.511719 210.140625 C 317.371094 209.945312 313.273438 210.320312 309.203125 211.082031 L 307.070312 211.480469 C 307.277344 211.300781 307.378906 211.203125 307.492188 211.117188 C 309.113281 209.8125 310.765625 208.539062 312.355469 207.203125 C 317.164062 203.179688 321.679688 198.851562 325.703125 194.023438 C 328.347656 190.851562 330.730469 187.492188 332.640625 183.816406 C 334.734375 179.796875 336.214844 175.582031 336.5625 171.027344 C 336.78125 168.164062 336.5625 165.335938 335.652344 162.605469 C 333.199219 155.175781 328.226562 150.234375 320.792969 147.8125 C 316.519531 146.421875 312.121094 146.226562 307.675781 146.621094 C 304.207031 146.929688 300.816406 147.636719 297.484375 148.644531 C 292.148438 150.257812 287.113281 152.558594 282.246094 155.242188 C 275.441406 158.988281 269.097656 163.40625 263.152344 168.398438 C 260.246094 170.839844 257.441406 173.382812 254.878906 176.1875 C 254.445312 176.664062 254.03125 177.15625 253.539062 177.722656 C 253.515625 177.421875 253.496094 177.210938 253.488281 177 C 253.335938 172.433594 253.1875 167.867188 253.039062 163.300781 C 252.953125 160.570312 252.875 157.84375 252.792969 155.113281 C 252.792969 154.90625 252.777344 154.703125 252.75 154.5 C 252.640625 153.90625 252.109375 153.347656 251.542969 153.242188 C 250.894531 153.113281 250.433594 153.390625 250.082031 153.917969 C 249.492188 154.808594 248.753906 155.566406 247.96875 156.28125 C 246.414062 157.695312 244.730469 158.945312 242.992188 160.128906 C 238.023438 163.515625 232.710938 166.191406 226.972656 168.007812 C 226.140625 168.269531 225.300781 168.535156 224.414062 168.535156 C 223.875 168.523438 223.398438 168.691406 222.984375 169.035156 C 222.226562 169.648438 222.148438 170.296875 222.796875 171.019531 C 223.824219 172.167969 224.855469 173.316406 225.863281 174.484375 C 228.167969 177.160156 230.355469 179.929688 232.324219 182.867188 C 237.742188 190.925781 242.035156 199.53125 244.871094 208.832031 C 244.984375 209.226562 245.144531 209.601562 245.351562 209.957031 C 245.929688 210.910156 247.300781 210.910156 247.914062 209.988281 C 248.21875 209.5 248.550781 209.03125 248.910156 208.578125 C 249.945312 207.339844 250.976562 206.09375 252.066406 204.898438 C 257.894531 198.542969 264.417969 192.992188 271.496094 188.085938 C 274.75 185.832031 278.132812 183.792969 281.78125 182.226562 C 283.992188 181.285156 286.253906 180.527344 288.664062 180.296875 C 289.6875 180.195312 290.710938 180.230469 291.695312 180.550781 C 292.820312 180.917969 293.511719 181.664062 293.730469 182.835938 C 293.898438 183.726562 293.820312 184.609375 293.636719 185.492188 C 293.3125 187.066406 292.703125 188.539062 291.964844 189.960938 C 290.367188 193.050781 288.285156 195.800781 285.984375 198.386719 C 282.441406 202.351562 278.464844 205.839844 274.171875 208.957031 C 269.546875 212.324219 264.679688 215.25 259.292969 217.25 C 258.964844 217.382812 258.65625 217.550781 258.371094 217.761719 C 258.183594 217.898438 258.054688 218.113281 257.90625 218.300781 C 257.773438 218.472656 257.664062 218.664062 257.519531 218.824219 C 257.109375 219.265625 257.050781 219.859375 257.402344 220.351562 C 257.535156 220.53125 257.6875 220.691406 257.820312 220.871094 C 259.652344 223.324219 261.445312 225.816406 263.0625 228.417969 C 264.867188 231.316406 266.828125 234.125 267.984375 237.378906 C 268.191406 237.957031 268.597656 238.398438 269.285156 238.453125 C 269.359375 238.464844 269.425781 238.488281 269.492188 238.523438 C 270.265625 238.847656 270.613281 238.785156 271.171875 238.179688 C 271.84375 237.457031 272.597656 236.828125 273.425781 236.289062 C 276.042969 234.535156 278.835938 233.117188 281.746094 231.9375 C 287.597656 229.5625 293.621094 227.917969 299.953125 227.574219 C 301.890625 227.453125 303.8125 227.585938 305.71875 227.964844 C 307.128906 228.257812 308.476562 228.71875 309.628906 229.621094 C 310.5 230.296875 311.0625 231.152344 311.242188 232.261719 C 311.351562 233.023438 311.316406 233.78125 311.140625 234.527344 C 310.785156 236.148438 310.054688 237.601562 309.1875 238.996094 C 307.800781 241.230469 306.085938 243.214844 304.246094 245.082031 C 299.597656 249.777344 294.355469 253.730469 288.824219 257.3125 C 288.714844 257.367188 288.601562 257.414062 288.488281 257.449219 C 288.488281 256.890625 288.503906 256.390625 288.488281 255.890625 C 288.457031 255.113281 288.449219 254.328125 288.347656 253.558594 C 288.1875 252.394531 287.472656 251.652344 286.453125 251.515625 C 286.136719 251.476562 285.824219 251.484375 285.511719 251.542969 C 284.230469 251.769531 282.964844 252.066406 281.679688 252.257812 C 279.347656 252.597656 277.011719 252.90625 274.667969 253.179688 C 271.714844 253.527344 268.75 253.703125 265.773438 253.800781 C 261.757812 253.933594 257.75 253.820312 253.746094 253.46875 C 252.835938 253.402344 251.941406 253.246094 251.0625 252.996094 C 250.78125 252.910156 250.449219 252.976562 250.144531 253.003906 C 249.980469 253.015625 249.824219 253.105469 249.664062 253.132812 C 249.289062 253.199219 249.011719 253.394531 248.824219 253.726562 C 248.671875 253.980469 248.546875 254.25 248.449219 254.527344 C 248.125 255.4375 247.824219 256.355469 247.496094 257.261719 C 245.015625 264.117188 242.328125 270.890625 239.429688 277.585938 C 237.910156 281.074219 236.289062 284.511719 234.566406 287.902344 C 234.28125 288.464844 233.988281 289.011719 233.808594 289.625 C 233.550781 290.5 234.054688 291.308594 234.96875 291.378906 C 235.207031 291.398438 235.449219 291.375 235.691406 291.367188 C 236.34375 291.355469 236.992188 291.335938 237.640625 291.335938 C 240.203125 291.320312 242.769531 291.355469 245.332031 291.292969 C 248.675781 291.207031 252.003906 290.871094 255.320312 290.464844 C 258.75 290.046875 262.15625 289.488281 265.542969 288.835938 C 270.449219 287.890625 275.289062 286.699219 280.070312 285.257812 C 290.070312 282.230469 299.640625 278.222656 308.636719 272.886719 C 314.578125 269.355469 320.136719 265.304688 325.164062 260.550781 C 329.695312 256.265625 333.695312 251.542969 336.902344 246.179688 C 339.332031 242.121094 341.21875 237.847656 342.039062 233.152344 C 342.550781 230.191406 342.609375 227.234375 341.96875 224.285156 Z M 338.902344 235.058594 C 338.011719 238.421875 336.566406 241.542969 334.800781 244.527344 C 331.511719 250.089844 327.351562 254.9375 322.609375 259.304688 C 317.175781 264.3125 311.144531 268.5 304.699219 272.09375 C 296.316406 276.765625 287.472656 280.320312 278.28125 283.03125 C 273.933594 284.3125 269.535156 285.371094 265.09375 286.238281 C 261.375 286.960938 257.636719 287.546875 253.871094 287.976562 C 249.285156 288.484375 244.695312 288.816406 240.078125 288.75 C 239.058594 288.734375 238.042969 288.75 236.949219 288.75 C 236.976562 288.65625 237.015625 288.566406 237.054688 288.476562 C 238.519531 286.097656 239.660156 283.558594 240.796875 281.011719 C 244.042969 273.761719 246.980469 266.394531 249.699219 258.929688 C 250.074219 257.902344 250.425781 256.867188 250.789062 255.832031 C 250.914062 255.472656 250.917969 255.476562 251.292969 255.574219 C 252.808594 255.957031 254.347656 256.195312 255.90625 256.289062 C 258.449219 256.460938 260.992188 256.523438 263.539062 256.492188 C 266.828125 256.457031 270.113281 256.304688 273.382812 255.960938 C 275.933594 255.695312 278.476562 255.394531 281.015625 255.042969 C 282.519531 254.835938 284.007812 254.496094 285.503906 254.214844 C 285.574219 254.203125 285.648438 254.195312 285.769531 254.183594 C 285.785156 254.433594 285.808594 254.671875 285.8125 254.90625 C 285.839844 256.074219 285.867188 257.246094 285.882812 258.417969 C 285.890625 258.898438 285.765625 259.285156 285.269531 259.539062 C 284.117188 260.132812 282.988281 260.777344 281.847656 261.398438 C 281.667969 261.492188 281.492188 261.59375 281.320312 261.707031 C 280.734375 262.128906 280.554688 262.832031 280.871094 263.425781 C 281.191406 264.019531 281.871094 264.269531 282.546875 264.007812 C 282.929688 263.867188 283.304688 263.703125 283.664062 263.515625 C 284.585938 263.023438 285.503906 262.542969 286.390625 262.003906 C 287.640625 261.242188 288.863281 260.429688 290.09375 259.636719 C 295.054688 256.441406 299.773438 252.933594 304.101562 248.90625 C 306.578125 246.597656 308.90625 244.148438 310.820312 241.335938 C 312.019531 239.582031 313.027344 237.726562 313.589844 235.660156 C 313.976562 234.242188 314.113281 232.8125 313.769531 231.367188 C 313.375 229.703125 312.441406 228.402344 311.078125 227.394531 C 309.648438 226.339844 308.011719 225.761719 306.292969 225.386719 C 303.6875 224.828125 301.054688 224.789062 298.421875 225.03125 C 290.15625 225.792969 282.417969 228.285156 275.113281 232.175781 C 273.335938 233.121094 271.660156 234.214844 270.1875 235.710938 C 268.996094 232.71875 267.242188 230.097656 265.570312 227.429688 C 263.898438 224.761719 262.199219 222.152344 260.050781 219.800781 C 261.050781 219.390625 261.976562 219.023438 262.890625 218.628906 C 266.503906 217.082031 269.878906 215.109375 273.132812 212.914062 C 278.242188 209.457031 282.964844 205.539062 287.167969 201.007812 C 289.789062 198.179688 292.152344 195.152344 294.003906 191.753906 C 294.964844 189.992188 295.761719 188.152344 296.191406 186.179688 C 296.464844 184.9375 296.59375 183.683594 296.347656 182.417969 C 295.882812 180.023438 294.421875 178.550781 292.101562 177.910156 C 290.683594 177.519531 289.238281 177.535156 287.785156 177.726562 C 284.738281 178.136719 281.894531 179.207031 279.140625 180.519531 C 275.050781 182.46875 271.265625 184.921875 267.621094 187.585938 C 261.566406 192.015625 255.90625 196.90625 250.773438 202.386719 C 249.515625 203.730469 248.292969 205.105469 247.234375 206.617188 C 247.195312 206.675781 247.144531 206.726562 247.0625 206.820312 C 242.515625 193.398438 235.734375 181.3125 226.128906 170.828125 C 226.507812 170.75 226.863281 170.679688 227.21875 170.601562 C 229.316406 170.144531 231.289062 169.328125 233.25 168.492188 C 238.242188 166.359375 242.890625 163.640625 247.203125 160.347656 C 248.207031 159.582031 249.15625 158.75 250.160156 157.929688 C 250.1875 158.023438 250.207031 158.121094 250.21875 158.222656 C 250.347656 161.710938 250.484375 165.203125 250.605469 168.691406 C 250.675781 170.738281 250.707031 172.78125 250.769531 174.820312 C 250.832031 176.621094 250.871094 178.425781 251.011719 180.222656 C 251.121094 181.699219 251.339844 183.171875 251.546875 184.640625 C 251.640625 185.332031 252.042969 185.734375 252.617188 185.839844 C 253.371094 185.980469 254.0625 185.515625 254.140625 184.75 C 254.179688 184.332031 254.113281 183.898438 254.074219 183.476562 C 254.023438 182.957031 253.972656 182.441406 253.886719 181.925781 C 253.824219 181.59375 253.910156 181.304688 254.148438 181.0625 C 255.585938 179.460938 256.960938 177.789062 258.476562 176.265625 C 263.738281 170.976562 269.5625 166.378906 275.769531 162.257812 C 280.054688 159.410156 284.507812 156.847656 289.179688 154.675781 C 293.804688 152.53125 298.574219 150.808594 303.59375 149.855469 C 307.28125 149.15625 311 148.894531 314.738281 149.269531 C 318.285156 149.621094 321.675781 150.542969 324.710938 152.480469 C 329.585938 155.585938 332.605469 159.996094 333.675781 165.675781 C 334.296875 168.976562 333.980469 172.257812 333.109375 175.496094 C 332.109375 179.203125 330.457031 182.613281 328.414062 185.847656 C 325.757812 190.0625 322.558594 193.84375 319.078125 197.398438 C 312.878906 203.742188 305.984375 209.257812 298.636719 214.222656 C 297.914062 214.707031 297.210938 215.226562 296.511719 215.742188 C 296.300781 215.898438 296.109375 216.074219 295.9375 216.269531 C 295.730469 216.5 295.621094 216.769531 295.609375 217.082031 C 295.597656 217.390625 295.6875 217.667969 295.878906 217.914062 C 296.0625 218.160156 296.308594 218.320312 296.609375 218.394531 C 296.90625 218.46875 297.199219 218.441406 297.476562 218.308594 C 297.679688 218.214844 297.871094 218.101562 298.050781 217.96875 C 298.777344 217.449219 299.5 216.933594 300.214844 216.398438 C 300.820312 215.945312 301.523438 215.699219 302.230469 215.480469 C 304.859375 214.679688 307.53125 214.046875 310.238281 213.578125 C 313.042969 213.078125 315.867188 212.796875 318.714844 212.742188 C 322.597656 212.6875 326.425781 213.082031 330.09375 214.46875 C 332.507812 215.382812 334.65625 216.707031 336.367188 218.671875 C 338.082031 220.636719 339.078125 222.953125 339.511719 225.511719 C 340.0625 228.738281 339.738281 231.917969 338.902344 235.058594 Z M 338.902344 235.058594 " fill-opacity="1" fill-rule="nonzero"/></g><path fill="#ff5757" d="M 338.902344 235.058594 C 338.011719 238.421875 336.566406 241.542969 334.800781 244.527344 C 331.511719 250.089844 327.351562 254.9375 322.609375 259.304688 C 317.175781 264.3125 311.144531 268.5 304.699219 272.09375 C 296.316406 276.765625 287.472656 280.320312 278.28125 283.03125 C 273.933594 284.3125 269.535156 285.371094 265.09375 286.238281 C 261.375 286.960938 257.636719 287.546875 253.871094 287.976562 C 249.285156 288.484375 244.695312 288.816406 240.078125 288.75 C 239.058594 288.734375 238.042969 288.75 236.949219 288.75 C 236.976562 288.65625 237.015625 288.566406 237.054688 288.476562 C 238.519531 286.097656 239.660156 283.558594 240.796875 281.011719 C 244.042969 273.761719 246.980469 266.394531 249.699219 258.929688 C 250.074219 257.902344 250.425781 256.867188 250.789062 255.832031 C 250.914062 255.472656 250.917969 255.476562 251.292969 255.574219 C 252.808594 255.957031 254.347656 256.195312 255.90625 256.289062 C 258.449219 256.460938 260.992188 256.523438 263.539062 256.492188 C 266.828125 256.457031 270.113281 256.304688 273.382812 255.960938 C 275.933594 255.695312 278.476562 255.394531 281.015625 255.042969 C 282.519531 254.835938 284.007812 254.496094 285.503906 254.214844 C 285.574219 254.203125 285.648438 254.195312 285.769531 254.183594 C 285.785156 254.433594 285.808594 254.671875 285.8125 254.90625 C 285.839844 256.074219 285.867188 257.246094 285.882812 258.417969 C 285.890625 258.898438 285.765625 259.285156 285.269531 259.539062 C 284.117188 260.132812 282.988281 260.777344 281.847656 261.398438 C 281.667969 261.492188 281.492188 261.59375 281.320312 261.707031 C 280.734375 262.128906 280.554688 262.832031 280.871094 263.425781 C 281.191406 264.019531 281.871094 264.269531 282.546875 264.007812 C 282.929688 263.867188 283.304688 263.703125 283.664062 263.515625 C 284.585938 263.023438 285.503906 262.542969 286.390625 262.003906 C 287.640625 261.242188 288.863281 260.429688 290.09375 259.636719 C 295.054688 256.441406 299.773438 252.933594 304.101562 248.90625 C 306.578125 246.597656 308.90625 244.148438 310.820312 241.335938 C 312.019531 239.582031 313.027344 237.726562 313.589844 235.660156 C 313.976562 234.242188 314.113281 232.8125 313.769531 231.367188 C 313.375 229.703125 312.441406 228.402344 311.078125 227.394531 C 309.648438 226.339844 308.011719 225.761719 306.292969 225.386719 C 303.6875 224.828125 301.054688 224.789062 298.421875 225.03125 C 290.15625 225.792969 282.417969 228.285156 275.113281 232.175781 C 273.335938 233.121094 271.660156 234.214844 270.1875 235.710938 C 268.996094 232.71875 267.242188 230.097656 265.570312 227.429688 C 263.898438 224.761719 262.199219 222.152344 260.050781 219.800781 C 261.050781 219.390625 261.976562 219.023438 262.890625 218.628906 C 266.503906 217.082031 269.878906 215.109375 273.132812 212.914062 C 278.242188 209.457031 282.964844 205.539062 287.167969 201.007812 C 289.789062 198.179688 292.152344 195.152344 294.003906 191.753906 C 294.964844 189.992188 295.761719 188.152344 296.191406 186.179688 C 296.464844 184.9375 296.59375 183.683594 296.347656 182.417969 C 295.882812 180.023438 294.421875 178.550781 292.101562 177.910156 C 290.683594 177.519531 289.238281 177.535156 287.785156 177.726562 C 284.738281 178.136719 281.894531 179.207031 279.140625 180.519531 C 275.050781 182.46875 271.265625 184.921875 267.621094 187.585938 C 261.566406 192.015625 255.90625 196.90625 250.773438 202.386719 C 249.515625 203.730469 248.292969 205.105469 247.234375 206.617188 C 247.195312 206.675781 247.144531 206.726562 247.0625 206.820312 C 242.515625 193.398438 235.734375 181.3125 226.128906 170.828125 C 226.507812 170.75 226.863281 170.679688 227.21875 170.601562 C 229.316406 170.144531 231.289062 169.328125 233.25 168.492188 C 238.242188 166.359375 242.890625 163.640625 247.203125 160.347656 C 248.207031 159.582031 249.15625 158.75 250.160156 157.929688 C 250.1875 158.023438 250.207031 158.121094 250.21875 158.222656 C 250.347656 161.710938 250.484375 165.203125 250.605469 168.691406 C 250.675781 170.738281 250.707031 172.78125 250.769531 174.820312 C 250.832031 176.621094 250.871094 178.425781 251.011719 180.222656 C 251.121094 181.699219 251.339844 183.171875 251.546875 184.640625 C 251.640625 185.332031 252.042969 185.734375 252.617188 185.839844 C 253.371094 185.980469 254.0625 185.515625 254.140625 184.75 C 254.179688 184.332031 254.113281 183.898438 254.074219 183.476562 C 254.023438 182.957031 253.972656 182.441406 253.886719 181.925781 C 253.824219 181.59375 253.910156 181.304688 254.148438 181.0625 C 255.585938 179.460938 256.960938 177.789062 258.476562 176.265625 C 263.738281 170.976562 269.5625 166.378906 275.769531 162.257812 C 280.054688 159.410156 284.507812 156.847656 289.179688 154.675781 C 293.804688 152.53125 298.574219 150.808594 303.59375 149.855469 C 307.28125 149.15625 311 148.894531 314.738281 149.269531 C 318.285156 149.621094 321.675781 150.542969 324.710938 152.480469 C 329.585938 155.585938 332.605469 159.996094 333.675781 165.675781 C 334.296875 168.976562 333.980469 172.257812 333.109375 175.496094 C 332.109375 179.203125 330.457031 182.613281 328.414062 185.847656 C 325.757812 190.0625 322.558594 193.84375 319.078125 197.398438 C 312.878906 203.742188 305.984375 209.257812 298.636719 214.222656 C 297.914062 214.707031 297.210938 215.226562 296.511719 215.742188 C 296.300781 215.898438 296.109375 216.074219 295.9375 216.269531 C 295.730469 216.5 295.621094 216.769531 295.609375 217.082031 C 295.597656 217.390625 295.6875 217.667969 295.878906 217.914062 C 296.0625 218.160156 296.308594 218.320312 296.609375 218.394531 C 296.90625 218.46875 297.199219 218.441406 297.476562 218.308594 C 297.679688 218.214844 297.871094 218.101562 298.050781 217.96875 C 298.777344 217.449219 299.5 216.933594 300.214844 216.398438 C 300.820312 215.945312 301.523438 215.699219 302.230469 215.480469 C 304.859375 214.679688 307.53125 214.046875 310.238281 213.578125 C 313.042969 213.078125 315.867188 212.796875 318.714844 212.742188 C 322.597656 212.6875 326.425781 213.082031 330.09375 214.46875 C 332.507812 215.382812 334.65625 216.707031 336.367188 218.671875 C 338.082031 220.636719 339.078125 222.953125 339.511719 225.511719 C 340.0625 228.738281 339.738281 231.917969 338.902344 235.058594 Z M 338.902344 235.058594 " fill-opacity="1" fill-rule="nonzero"/><path fill="#ff5757" d="M 90.125 102.007812 C 89.230469 102.007812 88.558594 102.085938 87.847656 102.210938 L 41.558594 110.210938 C 36.449219 111.097656 32.351562 114.886719 31.039062 119.875 L 29.675781 125.023438 C 27.683594 132.59375 32.652344 140.027344 40.046875 141.378906 C 40.625 141.890625 41.269531 142.316406 41.933594 142.71875 C 41.421875 144.84375 40.804688 147.226562 39.972656 150.054688 L 14.425781 237.425781 C 12.1875 245.070312 17.171875 252.703125 24.667969 254.089844 C 26.964844 256.132812 29.972656 257.417969 33.386719 257.417969 L 68.019531 257.417969 C 73.945312 257.417969 79.132812 253.46875 80.738281 247.785156 L 81.480469 245.179688 C 82.933594 249.65625 86.757812 253.183594 91.613281 254.089844 C 93.914062 256.132812 96.929688 257.417969 100.34375 257.417969 L 134.707031 257.417969 C 140.5625 257.417969 145.714844 253.566406 147.375 247.957031 C 147.375 247.957031 150.589844 237.113281 153.046875 228.8125 C 153.421875 236.148438 156.652344 242.710938 162.335938 247.859375 C 165.234375 250.484375 168.613281 252.425781 172.332031 253.757812 C 177.617188 257.214844 183.867188 258.90625 190.800781 258.90625 C 200.234375 258.90625 209.714844 255.199219 219.289062 248.234375 C 228.535156 241.511719 236.628906 231.425781 243.753906 218.109375 C 246.996094 212.046875 245.039062 204.519531 239.269531 200.785156 L 234.65625 197.792969 C 233.300781 196.914062 231.84375 196.335938 230.355469 196.003906 L 229.273438 195.296875 L 239.195312 161.960938 C 242.246094 151.589844 243.816406 142.917969 243.816406 135.683594 C 243.816406 127.125 240.894531 119.550781 235.117188 113.773438 C 231.976562 110.632812 228.273438 108.359375 224.179688 106.910156 C 219.285156 103.664062 213.613281 102.007812 207.480469 102.007812 C 200.601562 102.007812 194.046875 103.769531 188.023438 107.207031 L 188.011719 107.199219 C 187.960938 107.226562 187.90625 107.265625 187.851562 107.292969 C 187.84375 107.296875 187.835938 107.300781 187.832031 107.304688 C 183.15625 109.921875 178.25 113.875 173.0625 118.910156 C 172.425781 117.820312 171.75 116.75 170.980469 115.714844 C 167.839844 111.488281 163.578125 108.523438 158.550781 106.824219 C 153.726562 103.566406 147.878906 102.007812 141.324219 102.007812 C 133.878906 102.007812 126.570312 104.003906 119.554688 107.851562 C 118.15625 108.617188 116.726562 109.550781 115.261719 110.585938 C 113.34375 107.917969 110.445312 105.972656 107.003906 105.332031 C 104.707031 103.289062 101.6875 102.007812 98.273438 102.007812 C 97.949219 102.007812 90.449219 102.007812 90.125 102.007812 Z M 90.125 102.007812 " fill-opacity="1" fill-rule="nonzero"/><g clip-path="url(#0da7ac3ab1)"><path fill="#ffffff" d="M 90.125 100.804688 C 89.238281 100.804688 88.515625 100.878906 87.644531 101.03125 L 41.355469 109.03125 C 35.792969 109.996094 31.316406 114.117188 29.878906 119.574219 L 28.515625 124.710938 C 26.402344 132.753906 31.523438 140.808594 39.511719 142.460938 C 39.816406 142.714844 40.199219 142.96875 40.5625 143.214844 C 40.027344 145.375 39.492188 147.445312 38.824219 149.714844 L 13.277344 237.089844 C 10.90625 245.199219 16.011719 253.449219 24.109375 255.164062 C 26.691406 257.367188 29.90625 258.617188 33.386719 258.617188 L 68.019531 258.617188 C 74.320312 258.617188 79.84375 254.503906 81.734375 248.535156 C 83.773438 251.902344 87.125 254.363281 91.089844 255.195312 C 93.664062 257.378906 96.875 258.617188 100.34375 258.617188 L 134.707031 258.617188 C 141.09375 258.617188 146.710938 254.421875 148.523438 248.300781 C 148.570312 248.136719 151.011719 239.921875 152.671875 234.316406 C 154.042969 239.769531 157.042969 244.6875 161.53125 248.75 C 164.453125 251.394531 167.890625 253.410156 171.773438 254.820312 C 177.195312 258.335938 183.617188 260.109375 190.800781 260.109375 C 200.355469 260.109375 210.0625 256.4375 219.996094 249.210938 C 229.316406 242.433594 237.539062 232.273438 244.8125 218.675781 C 248.351562 212.066406 246.21875 203.851562 239.921875 199.777344 L 235.3125 196.785156 C 233.957031 195.910156 232.464844 195.300781 230.902344 194.921875 L 230.679688 194.78125 L 240.339844 162.304688 C 243.46875 151.679688 245.019531 142.949219 245.019531 135.683594 C 245.019531 126.730469 241.921875 118.878906 235.964844 112.925781 C 232.765625 109.726562 228.953125 107.339844 224.652344 105.804688 C 219.609375 102.511719 213.78125 100.804688 207.480469 100.804688 C 200.429688 100.804688 193.6875 102.609375 187.488281 106.136719 C 187.472656 106.144531 187.449219 106.136719 187.433594 106.148438 C 187.386719 106.171875 187.292969 106.222656 187.292969 106.222656 C 187.304688 106.214844 187.335938 106.210938 187.335938 106.210938 C 187.316406 106.21875 187.316406 106.222656 187.242188 106.265625 C 182.933594 108.675781 178.324219 112.285156 173.296875 117.054688 C 172.855469 116.351562 172.402344 115.609375 171.945312 114.996094 C 168.746094 110.691406 164.378906 107.589844 159.128906 105.773438 C 154.183594 102.464844 148.167969 100.804688 141.324219 100.804688 C 133.714844 100.804688 126.207031 102.832031 118.972656 106.800781 C 117.902344 107.390625 116.710938 108.191406 115.488281 109.019531 C 113.445312 106.609375 110.691406 104.910156 107.550781 104.25 C 104.972656 102.050781 101.753906 100.804688 98.273438 100.804688 C 98.03125 100.804688 90.242188 100.804688 90.125 100.804688 Z M 90.125 103.207031 C 90.242188 103.207031 98.03125 103.207031 98.273438 103.207031 C 101.261719 103.207031 104.03125 104.292969 106.210938 106.234375 C 106.375 106.378906 106.574219 106.472656 106.789062 106.511719 C 109.839844 107.078125 112.492188 108.792969 114.289062 111.285156 C 114.671875 111.820312 115.421875 111.945312 115.960938 111.5625 C 117.503906 110.46875 118.867188 109.597656 120.132812 108.902344 C 127.019531 105.125 134.132812 103.207031 141.324219 103.207031 C 147.75 103.207031 153.328125 104.753906 157.875 107.820312 C 157.964844 107.878906 158.0625 107.925781 158.164062 107.960938 C 163.050781 109.613281 167.070312 112.472656 170.015625 116.433594 C 170.6875 117.335938 171.3125 118.3125 172.023438 119.519531 C 172.417969 120.195312 173.339844 120.3125 173.898438 119.769531 C 179.214844 114.605469 184.003906 110.828125 188.421875 108.355469 C 188.433594 108.347656 188.425781 108.347656 188.453125 108.335938 C 188.480469 108.320312 188.566406 108.269531 188.582031 108.257812 C 188.582031 108.257812 188.59375 108.25 188.59375 108.25 C 188.601562 108.242188 188.613281 108.253906 188.625 108.25 C 194.480469 104.90625 200.828125 103.207031 207.480469 103.207031 C 213.390625 103.207031 218.828125 104.796875 223.511719 107.90625 C 223.597656 107.960938 223.691406 108.011719 223.78125 108.046875 C 227.78125 109.460938 231.308594 111.65625 234.273438 114.621094 C 239.765625 120.113281 242.617188 127.355469 242.617188 135.683594 C 242.617188 142.6875 241.109375 151.199219 238.046875 161.617188 L 228.125 194.953125 C 227.972656 195.460938 228.175781 196.011719 228.617188 196.304688 L 229.703125 197.011719 C 229.824219 197.089844 229.957031 197.140625 230.097656 197.171875 C 231.496094 197.484375 232.808594 198.027344 234.003906 198.804688 L 238.613281 201.796875 C 243.867188 205.191406 245.636719 212.03125 242.691406 217.539062 C 235.574219 230.839844 227.582031 240.714844 218.582031 247.261719 C 209.027344 254.207031 199.800781 257.707031 190.800781 257.707031 C 184.027344 257.707031 178.023438 256.042969 172.988281 252.75 C 172.90625 252.699219 172.828125 252.664062 172.738281 252.632812 C 169.082031 251.324219 165.859375 249.429688 163.140625 246.96875 C 157.667969 242.015625 154.605469 235.738281 154.25 228.746094 C 154.179688 227.398438 152.285156 227.175781 151.902344 228.46875 C 151.457031 229.96875 146.292969 247.390625 146.226562 247.613281 C 144.71875 252.714844 140.03125 256.214844 134.707031 256.214844 L 100.34375 256.214844 C 97.359375 256.214844 94.589844 255.128906 92.40625 253.191406 C 92.246094 253.046875 92.054688 252.953125 91.839844 252.910156 C 87.5 252.097656 83.972656 248.949219 82.625 244.804688 C 82.261719 243.675781 80.644531 243.703125 80.320312 244.847656 L 79.582031 247.453125 C 78.121094 252.628906 73.398438 256.214844 68.019531 256.214844 L 33.386719 256.214844 C 30.402344 256.214844 27.644531 255.128906 25.460938 253.191406 C 25.296875 253.046875 25.097656 252.953125 24.882812 252.910156 C 17.964844 251.628906 13.570312 244.609375 15.570312 237.757812 L 41.121094 150.390625 C 41.878906 147.816406 42.503906 145.480469 43.105469 143 C 43.226562 142.492188 43.003906 141.960938 42.558594 141.691406 C 41.824219 141.246094 41.296875 140.878906 40.839844 140.480469 C 40.675781 140.335938 40.476562 140.238281 40.261719 140.199219 C 33.453125 138.957031 29.046875 132.128906 30.832031 125.335938 L 32.195312 120.1875 C 33.394531 115.636719 37.128906 112.191406 41.761719 111.390625 L 88.054688 103.390625 C 88.792969 103.261719 89.382812 103.207031 90.125 103.207031 Z M 90.125 103.207031 " fill-opacity="1" fill-rule="nonzero"/></g><path fill="#ffffff" d="M 90.125 114.019531 C 90.054688 114.019531 89.988281 114.027344 89.917969 114.039062 L 43.609375 122.050781 C 43.144531 122.132812 42.773438 122.476562 42.652344 122.933594 L 41.292969 128.089844 C 41.089844 128.851562 41.660156 129.601562 42.449219 129.601562 C 46.933594 129.601562 49.957031 129.878906 51.414062 130.40625 C 52.828125 130.917969 53.796875 131.59375 54.367188 132.414062 C 54.945312 133.246094 55.246094 134.246094 55.246094 135.460938 C 55.246094 138.933594 53.996094 144.957031 51.492188 153.457031 L 25.953125 240.792969 C 25.730469 241.5625 26.300781 242.324219 27.101562 242.324219 L 61.746094 242.324219 C 62.28125 242.324219 62.746094 241.972656 62.890625 241.457031 L 73.851562 202.621094 C 82.863281 183.617188 92.855469 167.367188 103.832031 153.875 C 110.828125 145.390625 115.941406 141.144531 118.78125 141.144531 C 119.089844 141.144531 119.421875 141.285156 119.800781 141.636719 C 120.15625 141.964844 120.304688 142.253906 120.304688 142.527344 C 120.304688 144.191406 119.636719 147.410156 118.308594 152.105469 L 92.910156 240.804688 C 92.691406 241.570312 93.273438 242.324219 94.070312 242.324219 L 128.421875 242.324219 C 128.957031 242.324219 129.429688 241.976562 129.582031 241.46875 L 137.863281 213.484375 C 140.382812 204.75 142.925781 197.65625 145.476562 192.195312 C 148.023438 186.742188 152.632812 179.117188 159.300781 169.339844 C 165.96875 159.5625 171.074219 152.792969 174.597656 149.046875 C 178.054688 145.367188 180.617188 143.101562 182.1875 142.257812 C 183.210938 141.789062 184.207031 141.550781 185.203125 141.550781 C 185.503906 141.550781 185.859375 141.710938 186.285156 142.109375 C 186.691406 142.484375 186.855469 142.796875 186.855469 143.0625 C 186.855469 144.714844 185.824219 149.25 183.777344 156.460938 L 168.429688 209.421875 C 166.136719 217.398438 164.988281 223.375 164.988281 227.40625 C 164.988281 231.832031 166.808594 235.703125 170.402344 238.957031 C 173.988281 242.203125 178.722656 243.828125 184.527344 243.828125 C 191.148438 243.828125 198.285156 241.011719 205.945312 235.441406 C 213.578125 229.890625 220.542969 221.195312 226.871094 209.367188 C 227.164062 208.816406 226.988281 208.128906 226.464844 207.789062 L 221.851562 204.808594 C 221.3125 204.460938 220.59375 204.589844 220.222656 205.109375 C 218.59375 207.367188 217.371094 209.039062 216.5625 210.117188 C 212.984375 215.128906 209.613281 218.90625 206.449219 221.453125 L 206.417969 221.476562 C 205.914062 221.914062 205.335938 222.128906 204.625 222.128906 C 204.253906 222.128906 203.90625 221.972656 203.53125 221.574219 C 203.140625 221.152344 202.976562 220.753906 202.976562 220.351562 C 202.976562 218.339844 204.09375 213.554688 206.320312 206.160156 L 221.390625 155.492188 C 224.136719 146.152344 225.519531 138.535156 225.519531 132.605469 C 225.519531 127.136719 223.796875 122.636719 220.351562 119.1875 C 216.90625 115.746094 212.59375 114.019531 207.480469 114.019531 C 202.648438 114.019531 198.09375 115.25 193.835938 117.707031 C 187.824219 121.039062 180.804688 127.378906 172.75 136.714844 C 168.214844 141.96875 161.023438 152.09375 151.480469 166.550781 L 155.527344 152.082031 C 157.996094 143.386719 159.238281 136.769531 159.238281 132.199219 C 159.238281 127.683594 157.84375 123.535156 155.066406 119.800781 C 152.191406 115.933594 147.566406 114.019531 141.324219 114.019531 C 135.957031 114.019531 130.621094 115.484375 125.335938 118.382812 C 120.0625 121.277344 113.476562 127.328125 105.515625 136.574219 C 100.859375 142.015625 93.714844 152.070312 84.351562 166.207031 L 99.421875 115.5625 C 99.652344 114.792969 99.078125 114.019531 98.273438 114.019531 C 98.019531 114.019531 90.378906 114.019531 90.125 114.019531 Z M 90.125 114.019531 " fill-opacity="1" fill-rule="nonzero"/><path fill="#280594" d="M 104.5625 118.296875 L 87.175781 176.699219 C 98.855469 158.773438 107.367188 146.683594 112.710938 140.4375 C 120.589844 131.289062 127.085938 125.316406 132.199219 122.507812 C 137.316406 119.699219 142.457031 118.296875 147.617188 118.296875 C 153.503906 118.296875 157.757812 120.0625 160.382812 123.59375 C 163.011719 127.125 164.324219 131.019531 164.324219 135.273438 C 164.324219 139.710938 163.101562 146.230469 160.65625 154.832031 L 154.542969 176.699219 C 166.316406 158.589844 174.78125 146.546875 179.941406 140.570312 C 187.910156 131.335938 194.839844 125.089844 200.722656 121.828125 C 204.796875 119.472656 209.144531 118.296875 213.761719 118.296875 C 218.5625 118.296875 222.566406 119.90625 225.78125 123.117188 C 228.996094 126.332031 230.601562 130.519531 230.601562 135.683594 C 230.601562 141.476562 229.246094 148.992188 226.527344 158.230469 L 211.453125 208.890625 C 209.1875 216.40625 208.058594 221.25 208.058594 223.421875 C 208.058594 224.148438 208.351562 224.824219 208.941406 225.460938 C 209.53125 226.09375 210.183594 226.410156 210.910156 226.410156 C 211.90625 226.410156 212.765625 226.09375 213.488281 225.460938 C 216.75 222.835938 220.191406 218.988281 223.8125 213.914062 C 224.628906 212.828125 225.851562 211.152344 227.480469 208.890625 L 232.097656 211.878906 C 225.851562 223.558594 218.992188 232.117188 211.519531 237.546875 C 204.050781 242.980469 197.144531 245.699219 190.808594 245.699219 C 185.285156 245.699219 180.847656 244.179688 177.496094 241.148438 C 174.148438 238.113281 172.472656 234.558594 172.472656 230.484375 C 172.472656 226.59375 173.605469 220.707031 175.867188 212.828125 L 191.214844 159.859375 C 193.296875 152.523438 194.339844 147.953125 194.339844 146.140625 C 194.339844 145.507812 194.023438 144.894531 193.386719 144.308594 C 192.753906 143.71875 192.121094 143.425781 191.488281 143.425781 C 190.308594 143.425781 189.132812 143.695312 187.957031 144.238281 C 186.234375 145.144531 183.585938 147.5 180.011719 151.300781 C 176.433594 155.105469 171.292969 161.917969 164.59375 171.742188 C 157.894531 181.566406 153.253906 189.242188 150.671875 194.765625 C 148.09375 200.289062 145.535156 207.441406 143 216.226562 L 134.714844 244.203125 L 100.351562 244.203125 L 125.75 155.511719 C 127.109375 150.714844 127.785156 147.410156 127.785156 145.597656 C 127.785156 144.964844 127.492188 144.375 126.902344 143.832031 C 126.316406 143.289062 125.703125 143.015625 125.070312 143.015625 C 121.71875 143.015625 116.421875 147.410156 109.179688 156.191406 C 98.132812 169.773438 88.082031 186.117188 79.027344 205.222656 L 68.027344 244.203125 L 33.390625 244.203125 L 58.925781 156.871094 C 61.460938 148.269531 62.726562 142.15625 62.726562 138.535156 C 62.726562 137.085938 62.367188 135.839844 61.640625 134.800781 C 60.917969 133.757812 59.742188 132.941406 58.109375 132.355469 C 56.480469 131.765625 53.355469 131.472656 48.738281 131.472656 L 50.097656 126.3125 L 96.414062 118.296875 Z M 104.5625 118.296875 " fill-opacity="1" fill-rule="nonzero"/><path fill="#ffffff" d="M 96.414062 117.097656 C 96.34375 117.097656 96.277344 117.097656 96.210938 117.109375 L 49.898438 125.121094 C 49.433594 125.203125 49.050781 125.546875 48.933594 126 L 47.582031 131.171875 C 47.378906 131.933594 47.953125 132.671875 48.738281 132.671875 C 53.222656 132.671875 56.246094 132.960938 57.707031 133.488281 C 59.117188 133.996094 60.085938 134.664062 60.65625 135.480469 C 61.234375 136.316406 61.523438 137.328125 61.523438 138.539062 C 61.523438 142.015625 60.273438 148.039062 57.769531 156.535156 L 32.242188 243.863281 C 32.019531 244.628906 32.589844 245.40625 33.390625 245.40625 L 68.023438 245.40625 C 68.5625 245.40625 69.035156 245.042969 69.179688 244.527344 L 80.164062 205.617188 C 89.164062 186.644531 99.148438 170.429688 110.109375 156.953125 C 117.105469 148.46875 122.230469 144.210938 125.070312 144.210938 C 125.382812 144.210938 125.710938 144.367188 126.089844 144.71875 C 126.445312 145.046875 126.582031 145.324219 126.582031 145.597656 C 126.582031 147.261719 125.929688 150.488281 124.597656 155.183594 L 99.203125 243.871094 C 98.980469 244.640625 99.550781 245.40625 100.347656 245.40625 L 134.710938 245.40625 C 135.246094 245.40625 135.710938 245.058594 135.859375 244.546875 L 144.152344 216.566406 C 146.671875 207.828125 149.214844 200.734375 151.765625 195.277344 C 154.3125 189.824219 158.921875 182.195312 165.589844 172.421875 C 172.257812 162.644531 177.363281 155.875 180.886719 152.128906 C 184.367188 148.425781 186.933594 146.148438 188.5 145.316406 C 188.503906 145.316406 188.507812 145.308594 188.511719 145.308594 C 189.515625 144.851562 190.5 144.621094 191.480469 144.621094 C 191.78125 144.621094 192.148438 144.792969 192.574219 145.1875 C 192.984375 145.566406 193.132812 145.875 193.132812 146.144531 C 193.132812 147.796875 192.101562 152.320312 190.054688 159.527344 L 174.71875 212.488281 C 172.425781 220.46875 171.277344 226.457031 171.277344 230.488281 C 171.277344 234.910156 173.097656 238.785156 176.691406 242.039062 C 180.277344 245.285156 185 246.898438 190.804688 246.898438 C 197.429688 246.898438 204.566406 244.089844 212.226562 238.519531 C 219.855469 232.96875 226.832031 224.277344 233.160156 212.445312 C 233.453125 211.894531 233.277344 211.210938 232.753906 210.871094 L 228.128906 207.878906 C 227.59375 207.53125 226.875 207.667969 226.5 208.1875 C 224.875 210.445312 223.664062 212.121094 222.855469 213.195312 C 219.273438 218.207031 215.902344 221.972656 212.738281 224.523438 L 212.695312 224.554688 C 212.195312 224.996094 211.613281 225.210938 210.90625 225.210938 C 210.53125 225.210938 210.195312 225.042969 209.820312 224.640625 C 209.429688 224.21875 209.253906 223.824219 209.253906 223.417969 C 209.253906 221.410156 210.375 216.632812 212.601562 209.238281 L 227.679688 158.574219 C 230.425781 149.234375 231.808594 141.613281 231.808594 135.6875 C 231.808594 130.21875 230.078125 125.71875 226.628906 122.269531 C 223.1875 118.824219 218.871094 117.097656 213.757812 117.097656 C 208.929688 117.097656 204.382812 118.328125 200.125 120.789062 C 194.113281 124.117188 187.082031 130.449219 179.03125 139.78125 C 174.492188 145.035156 167.308594 155.167969 157.773438 169.621094 L 161.816406 155.152344 C 164.289062 146.457031 165.527344 139.851562 165.527344 135.277344 C 165.527344 130.761719 164.121094 126.617188 161.34375 122.878906 C 158.46875 119.015625 153.855469 117.097656 147.613281 117.097656 C 142.246094 117.097656 136.910156 118.550781 131.625 121.453125 C 126.355469 124.34375 119.765625 130.410156 111.804688 139.65625 C 107.148438 145.097656 99.996094 155.15625 90.632812 169.300781 L 105.710938 118.644531 C 105.941406 117.875 105.367188 117.097656 104.5625 117.097656 C 104.308594 117.097656 96.667969 117.097656 96.414062 117.097656 Z M 96.488281 119.5 C 96.796875 119.5 100.878906 119.5 102.945312 119.5 L 86.019531 176.355469 C 85.625 177.683594 87.429688 178.515625 88.1875 177.355469 C 99.839844 159.46875 108.328125 147.417969 113.625 141.21875 C 121.414062 132.179688 127.820312 126.277344 132.78125 123.554688 C 137.726562 120.84375 142.664062 119.5 147.613281 119.5 C 153.148438 119.5 157.046875 121.109375 159.425781 124.304688 C 161.898438 127.632812 163.125 131.285156 163.125 135.277344 C 163.125 139.582031 161.914062 146.003906 159.5 154.507812 L 153.386719 176.378906 C 153.015625 177.703125 154.800781 178.507812 155.550781 177.355469 C 167.292969 159.289062 175.738281 147.28125 180.851562 141.359375 C 188.738281 132.222656 195.566406 126.058594 201.304688 122.878906 C 205.21875 120.621094 209.351562 119.5 213.757812 119.5 C 218.242188 119.5 221.949219 120.976562 224.933594 123.964844 C 227.914062 126.945312 229.40625 130.832031 229.40625 135.6875 C 229.40625 141.347656 228.058594 148.753906 225.375 157.886719 L 210.304688 208.542969 C 208.003906 216.175781 206.851562 221.082031 206.851562 223.417969 C 206.851562 224.460938 207.277344 225.4375 208.0625 226.28125 C 208.867188 227.148438 209.828125 227.613281 210.90625 227.613281 C 212.171875 227.613281 213.304688 227.203125 214.242188 226.402344 C 214.25 226.394531 214.253906 226.386719 214.261719 226.378906 C 214.269531 226.375 214.277344 226.371094 214.285156 226.367188 C 217.625 223.667969 221.128906 219.746094 224.796875 214.613281 C 225.449219 213.738281 226.574219 212.195312 227.785156 210.515625 L 230.5 212.273438 C 224.476562 223.300781 217.917969 231.417969 210.820312 236.578125 C 203.539062 241.875 196.859375 244.492188 190.804688 244.492188 C 185.566406 244.492188 181.417969 243.078125 178.300781 240.257812 C 175.195312 237.445312 173.675781 234.210938 173.675781 230.488281 C 173.675781 226.730469 174.789062 220.945312 177.023438 213.167969 L 192.371094 160.195312 C 194.492188 152.726562 195.535156 148.113281 195.535156 146.144531 C 195.535156 145.140625 195.066406 144.230469 194.207031 143.429688 C 193.367188 142.648438 192.449219 142.21875 191.480469 142.21875 C 190.125 142.21875 188.78125 142.535156 187.449219 143.152344 L 187.394531 143.171875 C 185.519531 144.160156 182.800781 146.578125 179.136719 150.476562 C 175.507812 154.335938 170.339844 161.195312 163.605469 171.070312 C 156.875 180.941406 152.203125 188.664062 149.589844 194.257812 C 146.976562 199.84375 144.398438 207.050781 141.84375 215.890625 L 133.824219 243.003906 L 101.945312 243.003906 L 126.90625 155.839844 C 128.292969 150.933594 128.984375 147.550781 128.984375 145.597656 C 128.984375 144.601562 128.539062 143.703125 127.71875 142.945312 C 126.921875 142.210938 126.027344 141.808594 125.070312 141.808594 C 121.210938 141.808594 115.738281 146.355469 108.253906 155.429688 C 97.136719 169.097656 87.039062 185.515625 77.945312 204.703125 C 77.914062 204.765625 77.886719 204.832031 77.867188 204.894531 L 67.113281 243.003906 L 34.988281 243.003906 L 60.074219 157.210938 C 62.640625 148.507812 63.925781 142.308594 63.925781 138.539062 C 63.925781 136.851562 63.496094 135.359375 62.628906 134.109375 C 61.75 132.84375 60.367188 131.890625 58.519531 131.222656 C 56.953125 130.65625 54.082031 130.402344 50.285156 130.335938 L 51.066406 127.363281 Z M 96.488281 119.5 " fill-opacity="1" fill-rule="nonzero"/></svg>